<svg viewBox="0 0 50 50" xml:space="preserve" xmlns="http://www.w3.org/2000/svg" enable-background="new 0 0 50 50"><path d="M12.2 26.9c.6.7 1 1.5 1 2.5 0 2-1.7 3.6-3.7 3.6-.4 0-.8-.1-1.2-.2.7.7 1.6 1.2 2.6 1.2 2 0 3.6-1.6 3.7-3.6 0-1.7-1-3-2.4-3.5z" fill="#9a87fa" class="fill-4de0f9"></path><path d="M10.5 34c-1.2 0-2.2-.5-3-1.3-.8-.8-1.2-1.9-1.2-3s.5-2.2 1.3-3c.8-.8 1.8-1.2 3-1.2 2.3 0 4.2 1.9 4.2 4.3 0 1.1-.5 2.2-1.3 3-.9.8-1.9 1.2-3 1.2zm0-7.2c-.8 0-1.5.3-2.1.9-.6.6-.9 1.3-.9 2.1s.3 1.6.9 2.1c.6.6 1.3.9 2.1.9s1.5-.3 2.1-.9c.6-.6.9-1.3.9-2.1 0-1.7-1.3-3-3-3z" fill="#b2a3ff" class="fill-0d5fc3"></path><path d="M15.7 40.8v-1.2c0-2-1.2-3.7-2.9-4.4.9.9 1.4 2.1 1.4 3.4v2.1" fill="#9a87fa" class="fill-4de0f9"></path><path d="M15.8 40.3h-1.2v-1.2c0-2.3-1.8-4.1-4.1-4.2-1.1 0-2.1.4-2.9 1.2S6.4 37.9 6.4 39v1.3H5.2V39c0-1.4.6-2.8 1.6-3.7 1-1 2.3-1.6 3.8-1.5 1.4 0 2.7.6 3.7 1.6s1.5 2.4 1.5 3.8v1.1z" fill="#b2a3ff" class="fill-0d5fc3"></path><path d="M40.8 26.9c.6.7 1 1.5 1 2.5 0 2-1.7 3.6-3.7 3.6-.4 0-.8-.1-1.2-.2.7.7 1.6 1.2 2.6 1.2 2 0 3.6-1.6 3.7-3.6 0-1.7-1-3-2.4-3.5z" fill="#9a87fa" class="fill-4de0f9"></path><path d="M39.1 34c-.1 0-.1 0 0 0-1.2 0-2.2-.5-3-1.3-.8-.8-1.2-1.9-1.2-3s.5-2.2 1.3-3c.8-.8 1.8-1.2 3-1.2 2.3 0 4.2 1.9 4.2 4.3 0 1.1-.5 2.2-1.3 3-.9.8-1.9 1.2-3 1.2zm-.1-7.2c-.8 0-1.5.3-2.1.9-.6.6-.9 1.3-.9 2.1s.3 1.6.9 2.1c.6.6 1.3.9 2.1.9s1.5-.3 2.1-.9c.6-.6.9-1.3.9-2.1.1-1.7-1.2-3-3-3 .1 0 .1 0 0 0z" fill="#b2a3ff" class="fill-0d5fc3"></path><path d="M44.2 40.8v-1.2c0-2-1.2-3.7-2.9-4.4.9.9 1.4 2.1 1.4 3.4v2.1" fill="#9a87fa" class="fill-4de0f9"></path><path d="M44.3 40.3h-1.2v-1.2c0-2.3-1.8-4.1-4.1-4.2-1.1 0-2.1.4-2.9 1.2S35 37.9 34.9 39v1.3h-1.2V39c0-1.4.6-2.8 1.6-3.7 1-1 2.3-1.6 3.8-1.5 1.4 0 2.7.6 3.7 1.6s1.5 2.4 1.5 3.8v1.1z" fill="#b2a3ff" class="fill-0d5fc3"></path><path d="M26.2 5.6c.6.7 1 1.5 1 2.5 0 2-1.7 3.6-3.7 3.6-.4 0-.8-.1-1.2-.2.7.7 1.6 1.2 2.6 1.2 2 0 3.6-1.6 3.7-3.6 0-1.6-1-3-2.4-3.5z" fill="#9a87fa" class="fill-4de0f9"></path><path d="M24.5 12.8c-2.4 0-4.3-1.9-4.2-4.3 0-1.1.5-2.2 1.3-3 .8-.8 1.8-1.2 3-1.2 1.1 0 2.2.5 3 1.3.8.8 1.2 1.9 1.2 3-.1 2.3-2 4.2-4.3 4.2zm0-7.3c-.8 0-1.5.3-2.1.9-.6.6-.9 1.3-.9 2.1 0 1.7 1.3 3 3 3.1 1.7 0 3-1.3 3-3 0-.8-.3-1.6-.9-2.1-.5-.7-1.2-1-2.1-1z" fill="#b2a3ff" class="fill-0d5fc3"></path><path d="M29.7 19.5v-1.2c0-2-1.2-3.7-2.9-4.4.9.9 1.4 2.1 1.4 3.4v2.1" fill="#9a87fa" class="fill-4de0f9"></path><path d="M28.6 19.1v-1.2c0-2.3-1.8-4.1-4.1-4.2-1.1 0-2.1.4-2.9 1.2-.8.8-1.2 1.8-1.2 2.9v1.3h-1.2v-1.3c0-2.9 2.4-5.3 5.3-5.3h.1c1.4 0 2.7.6 3.7 1.6s1.5 2.4 1.5 3.8v1.2h-1.2zM7.4 24.3 6.2 24C7.5 17.7 12 12.4 18 10.1l.4 1.1c-5.5 2.2-9.8 7.2-11 13.1z" fill="#b2a3ff" class="fill-0d5fc3"></path><path d="m17.7 14.1-1.1-.4 1.1-2.7L15 9.8l.5-1.1 3.8 1.6zM6.6 25l-2.2-3.4 1-.7L7 23.4l2.5-1.6.6 1zM42.1 24.3c-1.2-5.9-5.4-10.9-11.1-13l.4-1.1c6 2.3 10.5 7.6 11.8 13.9l-1.1.2z" fill="#b2a3ff" class="fill-0d5fc3"></path><path d="m31.8 14.1-1.6-3.8L34 8.7l.5 1.1-2.7 1.2 1.1 2.7zM42.9 25l-3.5-2.2.6-1 2.5 1.6 1.6-2.5 1 .7zM24.8 46.7c-3.3 0-6.6-.8-9.5-2.5l.6-1c5.2 3 11.7 3.2 17.1.4l.6 1.1c-2.8 1.3-5.8 2-8.8 2z" fill="#b2a3ff" class="fill-0d5fc3"></path><path d="m32.8 47.5-1.1-.4 1-2.8-2.8-.9.4-1.2 3.9 1.4zM15.9 47.2l-1.1-4 4-1.1.3 1.2-2.8.7.7 2.9z" fill="#b2a3ff" class="fill-0d5fc3"></path></svg>