<svg xmlns="http://www.w3.org/2000/svg" xmlns:xlink="http://www.w3.org/1999/xlink" width="160" height="200" viewBox="0 0 160 200">
  <defs>
    <clipPath id="clip-cat">
      <rect width="160" height="200"/>
    </clipPath>
  </defs>
  <g id="cat" clip-path="url(#clip-cat)">
    <g id="Group_6" data-name="Group 6" transform="translate(-1039.349 -197.959)">
      <path id="Path_159" data-name="Path 159" d="M695.373,434.3c-13.273.172-17.836.284-31.024,1.963a94.361,94.361,0,0,0-5.429-11.036c-1.622-2.73-4.45-3.466-5.637,1.1-.288,1.107-.5,2.725-.7,3.93l-2.666,16.215c-4.727,28.737-9.483,57.99-7.692,87.311.756,12.4,3.145,25.712,10.427,33.5,6.561,7.011,13.995,6.657,22.4,6.657,8.744,0,6.237-.021,18.245-.021s9.154-.018,17.9-.018c8.411,0,15.844.353,22.4-6.658,7.283-7.783,9.67-21.1,10.427-33.5,1.791-29.322-2.964-58.575-7.691-87.31l-2.667-16.215a22.656,22.656,0,0,0-1.4-4.758c-1.544-3.008-3.4-2.207-5.52,1.183a65.306,65.306,0,0,0-4.848,9.576C708.727,434.547,702.612,434.13,695.373,434.3Z" transform="translate(404.464 -183.188)" fill="hsla(0, 0%, 100%, 1)" stroke="hsla(0, 0%, 100%, 1)" stroke-linecap="round" stroke-linejoin="round" stroke-width="12"/>
      <path id="Path_5295" data-name="Path 5295" d="M668.023,563.585a15.46,15.46,0,0,0-2.013-7.505,14.762,14.762,0,0,0-4.141-5.254,12.4,12.4,0,0,0-7.621-2.482,12.831,12.831,0,0,0-7.753,3.076c1.6,5.928,4.029,11.278,7.71,15.212a19.158,19.158,0,0,0,8.5,5.424,6.95,6.95,0,0,0,1.568-.8C666.971,569.486,667.926,566.143,668.023,563.585Z" transform="translate(404.464 -183.188)" fill="hsla(330, 80%, 65%, 1)" opacity="0.2" style="isolation: isolate"/>
      <path id="Path_159-2" data-name="Path 159" d="M695.373,434.3c-13.273.172-17.836.284-31.024,1.963a94.361,94.361,0,0,0-5.429-11.036c-1.622-2.73-4.45-3.466-5.637,1.1-.288,1.107-.5,2.725-.7,3.93l-2.666,16.215c-4.727,28.737-9.483,57.99-7.692,87.311.756,12.4,3.145,25.712,10.427,33.5,6.561,7.011,13.995,6.657,22.4,6.657,8.744,0,6.237-.021,18.245-.021s9.154-.018,17.9-.018c8.411,0,15.844.353,22.4-6.658,7.283-7.783,9.67-21.1,10.427-33.5,1.791-29.322-2.964-58.575-7.691-87.31l-2.667-16.215a22.656,22.656,0,0,0-1.4-4.758c-1.544-3.008-3.4-2.207-5.52,1.183a65.306,65.306,0,0,0-4.848,9.576C708.727,434.547,702.612,434.13,695.373,434.3Z" transform="translate(404.464 -183.188)" fill="none" stroke="hsla(140, 6%, 15%, 1)" stroke-linecap="round" stroke-linejoin="round" stroke-width="4"/>
      <path id="Path_142" data-name="Path 142" d="M701.954,457.8c-4.585,1.587-7.212,6.116-8.3,9.815s-.739,7.725.174,11.7a22.254,22.254,0,0,0,4.112,9.2,18.683,18.683,0,0,0,10.213,6.432,19.358,19.358,0,0,0,15.113-3.195c9.1-6.317,13.329-17.639,5.09-27.39C724.616,459.895,708.4,455.246,701.954,457.8Z" transform="translate(404.464 -183.188)" fill="hsla(330, 80%, 65%, 1)" opacity="0.2" style="isolation: isolate"/>
      <path id="Path_141" data-name="Path 141" d="M696.887,568.317a59.857,59.857,0,0,0,8.616-.029" transform="translate(404.464 -183.188)" fill="hsla(140, 6%, 15%, 1)" stroke="hsla(140, 6%, 15%, 1)" stroke-linecap="round" stroke-linejoin="round" stroke-width="4"/>
      <path id="Path_5297" data-name="Path 5297" d="M690.09,478.807l0,.008h0Z" transform="translate(404.464 -183.188)" fill="hsla(140, 6%, 15%, 1)" stroke="hsla(140, 6%, 15%, 1)" stroke-linecap="round" stroke-linejoin="round" stroke-width="4"/>
      <path id="Path_5298" data-name="Path 5298" d="M690.092,478.815c-2.657,1.323-1.549,6.027,1.625,5.207l.139.449c3.937-.269,3.423-6.443-.5-6.059a3.016,3.016,0,0,0-1.261.4" transform="translate(404.464 -183.188)" fill="hsla(140, 6%, 15%, 1)" stroke="hsla(140, 6%, 15%, 1)" stroke-linecap="round" stroke-linejoin="round" stroke-width="4"/>
      <path id="Path_161" data-name="Path 161" d="M691.75,482.233a107.181,107.181,0,0,0,0,22.65" transform="translate(404.464 -183.188)" fill="hsla(140, 6%, 15%, 1)" stroke="hsla(140, 6%, 15%, 1)" stroke-linecap="round" stroke-linejoin="round" stroke-width="4"/>
      <path id="Path_162" data-name="Path 162" d="M695.6,504.516a48.438,48.438,0,0,1-8.706.628" transform="translate(404.464 -183.188)" fill="hsla(140, 6%, 15%, 1)" stroke="hsla(140, 6%, 15%, 1)" stroke-linecap="round" stroke-linejoin="round" stroke-width="4"/>
      <path id="Path_163" data-name="Path 163" d="M689.957,434.478l-.832,4.355" transform="translate(404.464 -183.188)" fill="hsla(140, 6%, 15%, 1)" stroke="hsla(140, 6%, 15%, 1)" stroke-linecap="round" stroke-linejoin="round" stroke-width="4"/>
      <path id="Path_165" data-name="Path 165" d="M694.556,434.61l-.983,7.579" transform="translate(404.464 -183.188)" fill="hsla(140, 6%, 15%, 1)" stroke="hsla(140, 6%, 15%, 1)" stroke-linecap="round" stroke-linejoin="round" stroke-width="4"/>
      <path id="Path_5299" data-name="Path 5299" d="M677.114,475.8l0,0h0Z" transform="translate(404.464 -183.188)" fill="hsla(140, 6%, 15%, 1)" stroke="hsla(140, 6%, 15%, 1)" stroke-linecap="round" stroke-linejoin="round" stroke-width="4"/>
      <path id="Path_5300" data-name="Path 5300" d="M677.109,475.8c-.918-3.245-5.771-.7-3.633,1.9l.288-.151c1.153,1.955,4,.193,3.345-1.754" transform="translate(404.464 -183.188)" fill="hsla(140, 6%, 15%, 1)" stroke="hsla(140, 6%, 15%, 1)" stroke-linecap="round" stroke-linejoin="round" stroke-width="4"/>
      <path id="Path_5301" data-name="Path 5301" d="M706.312,474.867Z" transform="translate(404.464 -183.188)" fill="hsla(140, 6%, 15%, 1)" stroke="hsla(140, 6%, 15%, 1)" stroke-linecap="round" stroke-linejoin="round" stroke-width="4"/>
      <path id="Path_5302" data-name="Path 5302" d="M706.317,474.869c-1.645,2.943,3.583,4.579,3.916,1.221l-.31-.1c.567-2.2-2.69-2.963-3.606-1.124" transform="translate(404.464 -183.188)" fill="hsla(140, 6%, 15%, 1)" stroke="hsla(140, 6%, 15%, 1)" stroke-linecap="round" stroke-linejoin="round" stroke-width="4"/>
      <path id="Path_168" data-name="Path 168" d="M709.677,491.17l.377.092" transform="translate(404.464 -183.188)" fill="hsla(140, 6%, 15%, 1)" stroke="hsla(140, 6%, 15%, 1)" stroke-linecap="round" stroke-linejoin="round" stroke-width="4"/>
      <path id="Path_169" data-name="Path 169" d="M703.577,495.248a.334.334,0,0,1,.312.343" transform="translate(404.464 -183.188)" fill="hsla(140, 6%, 15%, 1)" stroke="hsla(140, 6%, 15%, 1)" stroke-linecap="round" stroke-linejoin="round" stroke-width="4"/>
      <path id="Path_170" data-name="Path 170" d="M710.187,498.018l.5.124" transform="translate(404.464 -183.188)" fill="hsla(140, 6%, 15%, 1)" stroke="hsla(140, 6%, 15%, 1)" stroke-linecap="round" stroke-linejoin="round" stroke-width="4"/>
      <path id="Path_171" data-name="Path 171" d="M673.31,498.781l-.356-.154" transform="translate(404.464 -183.188)" fill="hsla(140, 6%, 15%, 1)" stroke="hsla(140, 6%, 15%, 1)" stroke-linecap="round" stroke-linejoin="round" stroke-width="4"/>
      <path id="Path_172" data-name="Path 172" d="M678.861,495.033a.333.333,0,0,1-.251-.39" transform="translate(404.464 -183.188)" fill="hsla(140, 6%, 15%, 1)" stroke="hsla(140, 6%, 15%, 1)" stroke-linecap="round" stroke-linejoin="round" stroke-width="4"/>
      <path id="Path_173" data-name="Path 173" d="M673.339,490.538l-.474-.2" transform="translate(404.464 -183.188)" fill="hsla(140, 6%, 15%, 1)" stroke="hsla(140, 6%, 15%, 1)" stroke-linecap="round" stroke-linejoin="round" stroke-width="4"/>
      <path id="Path_5303" data-name="Path 5303" d="M700.132,529.657c0-7.767-2.878-5.531-6.9-1.485l-2.755.229c-1.208-1.905-4-4.928-6.4-3.6-1.148,1.666-.469,4.11-.7,6.054,0,7.728,2.848,5.552,6.837,1.546h3.007c1.292,1.9,3.926,4.573,6.207,3.308C700.583,534.045,699.905,531.6,700.132,529.657Z" transform="translate(404.464 -183.188)" fill="hsla(140, 6%, 15%, 1)" stroke="hsla(140, 6%, 15%, 1)" stroke-linecap="round" stroke-linejoin="round" stroke-width="4"/>
    </g>
  </g>
</svg>
