<svg xmlns="http://www.w3.org/2000/svg" width="51" height="81" viewBox="0 0 51 81">
  <g id="Group_12" data-name="Group 12" transform="translate(3 3)">
    <rect id="Rectangle_398" data-name="Rectangle 398" width="35" height="65" transform="translate(5 5)" fill="hsla(0, 0%, 100%, 1)"/>
    <g id="Union_16" data-name="Union 16" transform="translate(0)" fill="hsla(140, 6%, 15%, 1)" stroke-linejoin="round">
      <path d="M 41.50005722045898 76.49997711181641 L 40.00005722045898 76.49997711181641 L 4.999955654144287 76.49997711181641 L 3.499955654144287 76.49997711181641 L 3.499955654144287 74.99997711181641 L 3.499955654144287 71.49997711181641 L 0 71.49997711181641 L -1.5 71.49997711181641 L -1.5 69.99997711181641 L -1.5 4.999940395355225 L -1.5 3.499940395355225 L 0 3.499940395355225 L 3.499955654144287 3.499940395355225 L 3.499955654144287 -4.147677827859297e-06 L 3.499955654144287 -1.500004172325134 L 4.999955654144287 -1.500004172325134 L 9.999899864196777 -1.500004172325134 L 11.49989986419678 -1.500004172325134 L 11.49989986419678 -4.147677827859297e-06 L 11.49989986419678 3.499940395355225 L 33.50009918212891 3.499940395355225 L 33.50009918212891 -4.147677827859297e-06 L 33.50009918212891 -1.500004172325134 L 35.00009918212891 -1.500004172325134 L 40.00005722045898 -1.500004172325134 L 41.50005722045898 -1.500004172325134 L 41.50005722045898 -4.147677827859297e-06 L 41.50005722045898 3.499940395355225 L 45 3.499940395355225 L 46.5 3.499940395355225 L 46.5 4.999940395355225 L 46.5 69.99997711181641 L 46.5 71.49997711181641 L 45 71.49997711181641 L 41.50005722045898 71.49997711181641 L 41.50005722045898 74.99997711181641 L 41.50005722045898 76.49997711181641 Z M 6.499955654144287 68.49997711181641 L 38.50005722045898 68.49997711181641 L 38.50005722045898 6.499940395355225 L 36.50009918212891 6.499940395355225 L 36.50009918212891 9.999873161315918 L 36.50009918212891 11.49987316131592 L 35.00009918212891 11.49987316131592 L 9.999899864196777 11.49987316131592 L 8.499899864196777 11.49987316131592 L 8.499899864196777 9.999873161315918 L 8.499899864196777 6.499940395355225 L 6.499955654144287 6.499940395355225 L 6.499955654144287 68.49997711181641 Z" stroke="none"/>
      <path d="M 40.00004959106445 74.99996948242188 L 40.00004959106445 69.99998474121094 L 4.999949932098389 69.99998474121094 L 4.999949932098389 74.99996948242188 L 40.00004959106445 74.99996948242188 M 45 69.99998474121094 L 45 4.999934673309326 L 40.00004959106445 4.999934673309326 L 40.00004959106445 69.99998474121094 L 45 69.99998474121094 M 4.999949932098389 69.99998474121094 L 4.999949932098389 4.999934673309326 L 0 4.999934673309326 L 0 69.99998474121094 L 4.999949932098389 69.99998474121094 M 35.00009918212891 9.999872207641602 L 35.00009918212891 4.999934673309326 L 9.999899864196777 4.999934673309326 L 9.999899864196777 -2.758789150902885e-06 L 4.999949932098389 -2.758789150902885e-06 L 4.999949932098389 4.999934673309326 L 9.999899864196777 4.999934673309326 L 9.999899864196777 9.999872207641602 L 35.00009918212891 9.999872207641602 M 40.00004959106445 4.999934673309326 L 40.00004959106445 -2.758789150902885e-06 L 35.00009918212891 -2.758789150902885e-06 L 35.00009918212891 4.999934673309326 L 40.00004959106445 4.999934673309326 M 40.00004959106445 77.99996948242188 L 4.999949932098389 77.99996948242188 C 3.343100070953369 77.99996948242188 1.999950051307678 76.65682220458984 1.999950051307678 74.99996948242188 L 1.999950051307678 72.99998474121094 L 0 72.99998474121094 C -1.656849980354309 72.99998474121094 -3 71.65683746337891 -3 69.99998474121094 L -3 4.999934673309326 C -3 3.343084812164307 -1.656849980354309 1.999934792518616 0 1.999934792518616 L 1.999950051307678 1.999934792518616 L 1.999950051307678 -2.758789150902885e-06 C 1.999950051307678 -1.656852722167969 3.343100070953369 -3.000002861022949 4.999949932098389 -3.000002861022949 L 9.999899864196777 -3.000002861022949 C 11.6567497253418 -3.000002861022949 12.99989986419678 -1.656852722167969 12.99989986419678 -2.758789150902885e-06 L 12.99989986419678 1.999934792518616 L 32.00009918212891 1.999934792518616 L 32.00009918212891 -2.758789150902885e-06 C 32.00009918212891 -1.656852722167969 33.3432502746582 -3.000002861022949 35.00009918212891 -3.000002861022949 L 40.00004959106445 -3.000002861022949 C 41.65689849853516 -3.000002861022949 43.00004959106445 -1.656852722167969 43.00004959106445 -2.758789150902885e-06 L 43.00004959106445 1.999934792518616 L 45 1.999934792518616 C 46.6568489074707 1.999934792518616 48 3.343084812164307 48 4.999934673309326 L 48 69.99998474121094 C 48 71.65683746337891 46.6568489074707 72.99998474121094 45 72.99998474121094 L 43.00004959106445 72.99998474121094 L 43.00004959106445 74.99996948242188 C 43.00004959106445 76.65682220458984 41.65689849853516 77.99996948242188 40.00004959106445 77.99996948242188 Z M 7.999949932098389 66.99998474121094 L 37.00004959106445 66.99998474121094 L 37.00004959106445 12.2360200881958 C 36.46929168701172 12.71106433868408 35.76845550537109 12.9998722076416 35.00009918212891 12.9998722076416 L 9.999899864196777 12.9998722076416 C 9.23154354095459 12.9998722076416 8.530707359313965 12.71106433868408 7.999949932098389 12.2360200881958 L 7.999949932098389 66.99998474121094 Z" stroke="none" fill="hsla(0, 0%, 100%, 1)"/>
    </g>
    <path id="Union_17" data-name="Union 17" d="M5,10V5h5v5ZM0,10V0H5V10Z" transform="translate(5 60)" fill="hsla(330, 80%, 65%, 1)"/>
    <path id="Union_18" data-name="Union 18" d="M15,20V15h5v5Zm-5,0H5V15h5V10h5V20ZM20,5V0h5V5ZM0,5V0H5V5Z" transform="translate(10 20)" fill="hsla(140, 6%, 15%, 1)"/>
  </g>
</svg>
