<svg xmlns="http://www.w3.org/2000/svg" xmlns:xlink="http://www.w3.org/1999/xlink" width="160" height="200" viewBox="0 0 160 200">
  <defs>
    <clipPath id="clip-cat">
      <rect width="160" height="200"/>
    </clipPath>
  </defs>
  <g id="cat" clip-path="url(#clip-cat)">
    <g id="Group_950" data-name="Group 950" transform="translate(-141.881 -292.189)">
      <path id="Path_5582" data-name="Path 5582" d="M1380.338,707.766c2.828-.215,5.483-.04,8.051-.014a17.772,17.772,0,0,0,12.5-4.752c2.1-2.009,4.566-3.314,7.172-.583,5.115,7.185,1.381,17.649,6.527,24.851a18.7,18.7,0,0,1,3.58,8.607c.429,3.638.151,7.5.313,11.238a16.113,16.113,0,0,0,.477,3.139c5.876,23.942,13.468,47.978,10.352,73.076-.6,19.861-30.246,26.069-53.172,25.976-.319,0,.319,0,0,0-23.126,0-54.472-4.728-54.8-27.091-2.118-25.048,6.274-48.619,13.059-72.17a17.663,17.663,0,0,0,.668-4.084c.334-7.343.576-14.475,4.98-20.265a16.75,16.75,0,0,0,3.136-7.722c.811-5.5.531-11.4,4.09-15.753,2.725-2.6,5.124-1.222,7.142.859a17.4,17.4,0,0,0,12.922,5.14c3.445-.083,6.984-.528,10.285-.405A24.113,24.113,0,0,0,1380.338,707.766Z" transform="translate(-1172.53 -363.851)" fill="hsla(0, 0%, 100%, 1)" stroke="hsla(0, 0%, 100%, 1)" stroke-linecap="round" stroke-linejoin="round" stroke-miterlimit="10" stroke-width="12"/>
      <path id="Intersection_9" data-name="Intersection 9" d="M12003.881,9641.415q-.293-3.46-.327-6.883c15.689-1.072,36.2-1.3,41.832,4.086,7.231,6.931,3.407,22.489,1.2,29.432C12025.949,9666.434,12004.154,9660.042,12003.881,9641.415Z" transform="translate(-11855.07 -9183.053)" fill="hsla(140, 3%, 55%, 1)" opacity="0.2"/>
      <path id="Intersection_7" data-name="Intersection 7" d="M12068.643,9530.248a17.6,17.6,0,0,0,11.241-4.723c2.1-2.009,4.565-3.315,7.173-.583,5.113,7.183,1.38,17.647,6.526,24.848q.444.623.85,1.269a19.69,19.69,0,0,1-3.68.346C12079.761,9551.4,12070.606,9542.293,12068.643,9530.248Z" transform="translate(-11851.523 -9186.375)" fill="hsla(140, 3%, 55%, 1)" opacity="0.2"/>
      <path id="Path_5557" data-name="Path 5557" d="M1380.338,707.766c2.828-.215,5.483-.04,8.051-.014a17.772,17.772,0,0,0,12.5-4.752c2.1-2.009,4.566-3.314,7.172-.583,5.115,7.185,1.381,17.649,6.527,24.851a18.7,18.7,0,0,1,3.58,8.607c.429,3.638.151,7.5.313,11.238a16.113,16.113,0,0,0,.477,3.139c5.876,23.942,13.468,47.978,10.352,73.076-.6,19.861-30.246,26.069-53.172,25.976-.319,0,.319,0,0,0-23.126,0-54.472-4.728-54.8-27.091-2.118-25.048,6.274-48.619,13.059-72.17a17.663,17.663,0,0,0,.668-4.084c.334-7.343.576-14.475,4.98-20.265a16.75,16.75,0,0,0,3.136-7.722c.811-5.5.531-11.4,4.09-15.753,2.725-2.6,5.124-1.222,7.142.859a17.4,17.4,0,0,0,12.922,5.14c3.445-.083,6.984-.528,10.285-.405A24.113,24.113,0,0,0,1380.338,707.766Z" transform="translate(-1172.53 -363.851)" fill="none" stroke="hsla(140, 6%, 15%, 1)" stroke-linecap="round" stroke-linejoin="round" stroke-miterlimit="10" stroke-width="4"/>
      <path id="Path_157" data-name="Path 157" d="M504.071,471.062a5.825,5.825,0,0,0,10.773-2.213" transform="translate(726.195 855.317) rotate(180)" fill="none" stroke="hsla(140, 6%, 15%, 1)" stroke-linecap="round" stroke-linejoin="round" stroke-width="4"/>
      <path id="Path_157-2" data-name="Path 157" d="M504.071,471.062a5.825,5.825,0,0,0,10.773-2.213" transform="matrix(-0.883, -0.469, 0.469, -0.883, 421.191, 1039.317)" fill="none" stroke="hsla(140, 6%, 15%, 1)" stroke-linecap="round" stroke-linejoin="round" stroke-width="4"/>
      <path id="Path_113" data-name="Path 113" d="M328.035,487.3l6.022-.863a14.729,14.729,0,0,0-2.685,5.353C330.249,490.323,329.159,488.776,328.035,487.3Z" transform="matrix(-0.574, 0.819, -0.819, -0.574, 795.242, 408.743)" fill="hsla(140, 6%, 15%, 1)" stroke="hsla(140, 6%, 15%, 1)" stroke-linecap="round" stroke-linejoin="round" stroke-width="4"/>
      <path id="Path_195" data-name="Path 195" d="M845.222,483.138a13.088,13.088,0,0,0,.851,8.571" transform="matrix(-0.996, -0.087, 0.087, -0.996, 1004.466, 964.915)" fill="hsla(140, 6%, 15%, 1)" stroke="hsla(140, 6%, 15%, 1)" stroke-linecap="round" stroke-linejoin="round" stroke-width="4"/>
      <path id="Path_142" data-name="Path 142" d="M696.259,457.34a5.252,5.252,0,0,0-3.03,3.585,8.493,8.493,0,0,0,.064,4.274,8.129,8.129,0,0,0,1.5,3.36,6.824,6.824,0,0,0,3.73,2.349,7.07,7.07,0,0,0,5.52-1.167c3.323-2.307,4.868-6.442,1.859-10C704.536,458.1,698.611,456.407,696.259,457.34Z" transform="translate(347.415 1235.837) rotate(-132)" fill="hsla(140, 3%, 55%, 1)" opacity="0.2" style="isolation: isolate"/>
      <path id="Path_142-2" data-name="Path 142" d="M696.259,457.34a5.252,5.252,0,0,0-3.03,3.585,8.493,8.493,0,0,0,.064,4.274,8.129,8.129,0,0,0,1.5,3.36,6.824,6.824,0,0,0,3.73,2.349,7.07,7.07,0,0,0,5.52-1.167c3.323-2.307,4.868-6.442,1.859-10C704.536,458.1,698.611,456.407,696.259,457.34Z" transform="translate(845.016 -117.639) rotate(108)" fill="hsla(140, 3%, 55%, 1)" opacity="0.2" style="isolation: isolate"/>
      <path id="Path_119" data-name="Path 119" d="M345.539,485.816l15.575-3.029" transform="translate(-106.995 -88.179)" fill="hsla(140, 6%, 15%, 1)" stroke="hsla(140, 6%, 15%, 1)" stroke-linecap="round" stroke-linejoin="round" stroke-width="4"/>
      <path id="Path_119-2" data-name="Path 119" d="M345.539,485.816l15.575-3.029" transform="matrix(-0.966, -0.259, 0.259, -0.966, 373.719, 966.87)" fill="hsla(140, 6%, 15%, 1)" stroke="hsla(140, 6%, 15%, 1)" stroke-linecap="round" stroke-linejoin="round" stroke-width="4"/>
      <path id="Path_120" data-name="Path 120" d="M346.361,492.245l14.025-.289" transform="translate(-103.995 -86.179)" fill="hsla(140, 6%, 15%, 1)" stroke="hsla(140, 6%, 15%, 1)" stroke-linecap="round" stroke-linejoin="round" stroke-width="4"/>
      <path id="Path_120-2" data-name="Path 120" d="M346.361,492.245l14.025-.289" transform="matrix(-0.966, -0.259, 0.259, -0.966, 374.719, 964.87)" fill="hsla(140, 6%, 15%, 1)" stroke="hsla(140, 6%, 15%, 1)" stroke-linecap="round" stroke-linejoin="round" stroke-width="4"/>
      <path id="Path_5576" data-name="Path 5576" d="M-1.6,9.173l4.78,6.6L4.261.3,7.928,11.483" transform="matrix(-0.07, -0.998, 0.998, -0.07, 230.781, 471.868)" fill="none" stroke="hsla(140, 6%, 15%, 1)" stroke-linecap="round" stroke-linejoin="round" stroke-width="4"/>
      <path id="Path_178" data-name="Path 178" d="M.178,4.067A2.379,2.379,0,0,1,.4,1.838,7.028,7.028,0,0,1,2.02.165.5.5,0,0,1,2.4,0a.333.333,0,0,1,.235.343.976.976,0,0,1-.147.424L.91,3.732a.966.966,0,0,1-.336.416.282.282,0,0,1-.391-.073Z" transform="matrix(0.788, 0.616, -0.616, 0.788, 229.664, 458.591)" fill="hsla(140, 6%, 15%, 1)" stroke="hsla(140, 6%, 15%, 1)" stroke-linecap="round" stroke-linejoin="round" stroke-width="4"/>
    </g>
  </g>
</svg>
