<svg xmlns="http://www.w3.org/2000/svg" xmlns:xlink="http://www.w3.org/1999/xlink" width="160" height="200" viewBox="0 0 160 200">
  <defs>
    <clipPath id="clip-cat">
      <rect width="160" height="200"/>
    </clipPath>
  </defs>
  <g id="cat" clip-path="url(#clip-cat)">
    <g id="Group_951" data-name="Group 951" transform="translate(-331.779 -292.213)">
      <path id="Path_5583" data-name="Path 5583" d="M1551.244,750.51c-2.031-.045-9.052-.306-10.858-.9a13.561,13.561,0,0,1-5.378-3.245c-1.807-1.764-3.378-4.364-5.2-6.84a21.789,21.789,0,0,0-3.04-3.441,9.725,9.725,0,0,0-3.953-2.2,7.564,7.564,0,0,0-1.925-.248,9.666,9.666,0,0,0-6.014,2.349,15.842,15.842,0,0,0-4.308,5.65,28.552,28.552,0,0,0-2.187,7.844c-.389,2.667-.531,5.331-.664,7.874q-3.217,62.332-6.436,124.667a32.041,32.041,0,0,0,.266,7.67,12.6,12.6,0,0,0,1.62,4.316,9.6,9.6,0,0,0,2.347,2.593,10.955,10.955,0,0,0,4.259,1.909,25.616,25.616,0,0,0,7.135.358h0c11.617-.71,22.578-2.13,34.853-2.13,13.22,0,23.235,1.42,34.852,2.13h0a25.614,25.614,0,0,0,7.135-.358,10.954,10.954,0,0,0,4.259-1.909,9.589,9.589,0,0,0,2.348-2.593,12.6,12.6,0,0,0,1.619-4.316,32.041,32.041,0,0,0,.266-7.67q-3.217-62.332-6.436-124.667c-.132-2.543-.274-5.207-.664-7.874a28.483,28.483,0,0,0-2.187-7.844,15.842,15.842,0,0,0-4.308-5.65,9.665,9.665,0,0,0-6.013-2.349,7.567,7.567,0,0,0-1.926.248,9.725,9.725,0,0,0-3.953,2.2,21.734,21.734,0,0,0-3.039,3.441c-1.819,2.476-3.39,5.076-5.2,6.84-3.8,4.468-11.961,3.89-17.285,4.144Z" transform="translate(-1162.53 -413.798)" fill="hsla(0, 0%, 100%, 1)" stroke="hsla(0, 0%, 100%, 1)" stroke-linecap="round" stroke-linejoin="round" stroke-miterlimit="10" stroke-width="12"/>
      <ellipse id="Ellipse_14" data-name="Ellipse 14" cx="16.266" cy="19.324" rx="16.266" ry="19.324" transform="translate(377.046 431.408)" fill="hsla(150, 60%, 50%, 1)" opacity="0.2"/>
      <path id="Intersection_4" data-name="Intersection 4" d="M12012.569,9568.784q.242-4.69.484-9.379c.134-2.546.276-5.208.665-7.876a28.523,28.523,0,0,1,2.188-7.843,15.84,15.84,0,0,1,4.306-5.649,9.668,9.668,0,0,1,6.014-2.352,7.661,7.661,0,0,1,1.927.249,9.74,9.74,0,0,1,3.953,2.2,21.667,21.667,0,0,1,3.039,3.442q.261.356.516.714.1,1.313.1,2.662c0,13.78-8.007,24.951-17.879,24.951A13.288,13.288,0,0,1,12012.569,9568.784Z" transform="translate(-11667.863 -9215.848)" fill="hsla(150, 60%, 50%, 1)" opacity="0.2"/>
      <path id="Path_5562" data-name="Path 5562" d="M1551.244,750.51c-2.031-.045-9.052-.306-10.858-.9a13.561,13.561,0,0,1-5.378-3.245c-1.807-1.764-3.378-4.364-5.2-6.84a21.789,21.789,0,0,0-3.04-3.441,9.725,9.725,0,0,0-3.953-2.2,7.564,7.564,0,0,0-1.925-.248,9.666,9.666,0,0,0-6.014,2.349,15.842,15.842,0,0,0-4.308,5.65,28.552,28.552,0,0,0-2.187,7.844c-.389,2.667-.531,5.331-.664,7.874q-3.217,62.332-6.436,124.667a32.041,32.041,0,0,0,.266,7.67,12.6,12.6,0,0,0,1.62,4.316,9.6,9.6,0,0,0,2.347,2.593,10.955,10.955,0,0,0,4.259,1.909,25.616,25.616,0,0,0,7.135.358h0c11.617-.71,22.578-2.13,34.853-2.13,13.22,0,23.235,1.42,34.852,2.13h0a25.614,25.614,0,0,0,7.135-.358,10.954,10.954,0,0,0,4.259-1.909,9.589,9.589,0,0,0,2.348-2.593,12.6,12.6,0,0,0,1.619-4.316,32.041,32.041,0,0,0,.266-7.67q-3.217-62.332-6.436-124.667c-.132-2.543-.274-5.207-.664-7.874a28.483,28.483,0,0,0-2.187-7.844,15.842,15.842,0,0,0-4.308-5.65,9.665,9.665,0,0,0-6.013-2.349,7.567,7.567,0,0,0-1.926.248,9.725,9.725,0,0,0-3.953,2.2,21.734,21.734,0,0,0-3.039,3.441c-1.819,2.476-3.39,5.076-5.2,6.84-3.8,4.468-11.961,3.89-17.285,4.144Z" transform="translate(-1162.53 -413.798)" fill="none" stroke="hsla(140, 6%, 15%, 1)" stroke-linecap="round" stroke-linejoin="round" stroke-miterlimit="10" stroke-width="4"/>
      <path id="Path_5564" data-name="Path 5564" d="M654.813,1026.393c1.757,6.789-6.574,13.116-2.254,14.34,4.15,1.176,2.133-6.119,1.66-8.307" transform="translate(1212.514 1305.131) rotate(170)" fill="hsla(140, 6%, 15%, 1)" stroke="hsla(140, 6%, 15%, 1)" stroke-linecap="round" stroke-linejoin="round" stroke-miterlimit="10" stroke-width="4"/>
      <path id="Path_5565" data-name="Path 5565" d="M631.877,1022.223a21.556,21.556,0,0,1,9.8,2.747" transform="translate(-268.88 -630.679)" fill="none" stroke="hsla(140, 6%, 15%, 1)" stroke-linecap="round" stroke-miterlimit="10" stroke-width="4"/>
      <path id="Path_5568" data-name="Path 5568" d="M641.679,1022.223a21.554,21.554,0,0,0-9.8,2.747" transform="translate(-228.2 -631.32)" fill="none" stroke="hsla(140, 6%, 15%, 1)" stroke-linecap="round" stroke-miterlimit="10" stroke-width="4"/>
      <path id="Path_5566" data-name="Path 5566" d="M641.679,1022.223a21.553,21.553,0,0,0-9.8,2.747" transform="translate(-268.88 -616.333)" fill="none" stroke="hsla(140, 6%, 15%, 1)" stroke-linecap="round" stroke-miterlimit="10" stroke-width="4"/>
      <path id="Path_5567" data-name="Path 5567" d="M631.877,1022.223a21.552,21.552,0,0,1,9.8,2.747" transform="translate(-228.199 -616.975)" fill="none" stroke="hsla(140, 6%, 15%, 1)" stroke-linecap="round" stroke-miterlimit="10" stroke-width="4"/>
      <path id="Path_5570" data-name="Path 5570" d="M4.174.009A3.338,3.338,0,0,1,7.927,3.49a4.469,4.469,0,0,1-4.168,4A3.338,3.338,0,0,1,.006,4.009,4.469,4.469,0,0,1,4.174.009Z" transform="matrix(0.951, -0.309, 0.309, 0.951, 374.92, 375.333)" fill="hsla(140, 6%, 15%, 1)"/>
      <path id="Path_5569" data-name="Path 5569" d="M3.822,0A4.014,4.014,0,0,1,7.766,3.88,3.681,3.681,0,0,1,3.945,7.6,4.014,4.014,0,0,1,0,3.726,3.681,3.681,0,0,1,3.822,0Z" transform="matrix(0.996, 0.087, -0.087, 0.996, 395.818, 373.546)" fill="hsla(140, 6%, 15%, 1)"/>
      <path id="Path_130" data-name="Path 130" d="M381.406,941.359l-6.266.116" transform="translate(757.053 1389.496) rotate(180)" fill="hsla(140, 6%, 15%, 1)" stroke="hsla(140, 6%, 15%, 1)" stroke-linecap="round" stroke-linejoin="round" stroke-width="4"/>
      <path id="Path_130-2" data-name="Path 130" d="M359.815,920.678l-6.265.117" transform="translate(757.053 1389.496) rotate(180)" fill="hsla(140, 6%, 15%, 1)" stroke="hsla(140, 6%, 15%, 1)" stroke-linecap="round" stroke-linejoin="round" stroke-width="4"/>
      <path id="Path_132" data-name="Path 132" d="M353.55,950.344l-4.944.3" transform="translate(757.053 1389.496) rotate(180)" fill="hsla(140, 6%, 15%, 1)" stroke="hsla(140, 6%, 15%, 1)" stroke-linecap="round" stroke-linejoin="round" stroke-width="4"/>
      <path id="Path_133" data-name="Path 133" d="M378.273,952.379l-6.011.383" transform="translate(757.053 1389.496) rotate(180)" fill="hsla(140, 6%, 15%, 1)" stroke="hsla(140, 6%, 15%, 1)" stroke-linecap="round" stroke-linejoin="round" stroke-width="4"/>
      <path id="Path_133-2" data-name="Path 133" d="M362.694,942.309l-6.012.383" transform="translate(757.053 1389.496) rotate(180)" fill="hsla(140, 6%, 15%, 1)" stroke="hsla(140, 6%, 15%, 1)" stroke-linecap="round" stroke-linejoin="round" stroke-width="4"/>
      <path id="Path_133-3" data-name="Path 133" d="M352.458,932.11l-6.012.382" transform="translate(757.053 1389.496) rotate(180)" fill="hsla(140, 6%, 15%, 1)" stroke="hsla(140, 6%, 15%, 1)" stroke-linecap="round" stroke-linejoin="round" stroke-width="4"/>
      <path id="Path_136" data-name="Path 136" d="M377.113,925.4l-3.946.041" transform="translate(757.053 1389.496) rotate(180)" fill="hsla(140, 6%, 15%, 1)" stroke="hsla(140, 6%, 15%, 1)" stroke-linecap="round" stroke-linejoin="round" stroke-width="4"/>
      <path id="Path_137" data-name="Path 137" d="M369.816,932.575l-3.372-.166" transform="translate(757.053 1389.496) rotate(180)" fill="hsla(140, 6%, 15%, 1)" stroke="hsla(140, 6%, 15%, 1)" stroke-linecap="round" stroke-linejoin="round" stroke-width="4"/>
      <path id="Path_137-2" data-name="Path 137" d="M363.187,957.088l-3.372-.166" transform="translate(757.053 1389.496) rotate(180)" fill="hsla(140, 6%, 15%, 1)" stroke="hsla(140, 6%, 15%, 1)" stroke-linecap="round" stroke-linejoin="round" stroke-width="4"/>
    </g>
  </g>
</svg>
