<svg xmlns="http://www.w3.org/2000/svg" xmlns:xlink="http://www.w3.org/1999/xlink" width="160" height="200" viewBox="0 0 160 200">
  <defs>
    <clipPath id="clip-cat">
      <rect width="160" height="200"/>
    </clipPath>
  </defs>
  <g id="cat" clip-path="url(#clip-cat)">
    <g id="Group_8" data-name="Group 8" transform="translate(-790.349 -192.959)">
      <path id="Path_144" data-name="Path 144" d="M522.543,444.4c-7.314-.074-18.982-.3-21.69-3.341-4.187-4.7-3.9-14.5-9.251-16.878-3.356-1.49-7.152,1.243-9.014,4.959s-2.317,8.186-3,12.461c-2.7,16.973-9.445,32.5-15.078,48.365S454.231,523,456.1,540.138c.851,7.783,3.268,15.722,8.282,20.65,5.331,5.239,12.583,6.218,19.4,6.991,15.8,1.794,14.831,1.67,30.253,1.6,15.422.074,31.494.271,47.294-1.522,6.818-.774,14.069-1.753,19.4-6.992,5.015-4.928,7.433-12.867,8.283-20.649,1.871-17.136-2.777-34.31-8.411-50.174s-12.381-31.4-15.078-48.365c-.68-4.275-1.134-8.745-3-12.461s-5.658-6.448-9.014-4.96c-5.349,2.375-5.064,12.177-9.251,16.878C541.554,444.171,528.882,444.175,522.543,444.4Z" transform="translate(341.621 -183.188)" fill="hsla(0, 0%, 100%, 1)" stroke="hsla(0, 0%, 100%, 1)" stroke-linecap="round" stroke-linejoin="round" stroke-width="12"/>
      <path id="Path_5296" data-name="Path 5296" d="M553.228,568.578c2.953-4.538,4.08-11.06,4.215-16.263a52.174,52.174,0,0,0-3.349-18.359c-1.608-4.633-3.647-9.217-6.89-12.853s-7.863-6.239-12.678-6.072c-6.516.226-11.952,5.342-15.327,11.036-7.645,12.9-9.34,31.172.368,43.323C530.626,569.443,541.955,569.413,553.228,568.578Z" transform="translate(341.621 -183.188)" fill="hsla(200, 90%, 60%, 1)" opacity="0.2" style="isolation: isolate"/>
      <path id="Path_144-2" data-name="Path 144" d="M522.543,444.4c-7.314-.074-18.982-.3-21.69-3.341-4.187-4.7-3.9-14.5-9.251-16.878-3.356-1.49-7.152,1.243-9.014,4.959s-2.317,8.186-3,12.461c-2.7,16.973-9.445,32.5-15.078,48.365S454.231,523,456.1,540.138c.851,7.783,3.268,15.722,8.282,20.65,5.331,5.239,12.583,6.218,19.4,6.991,15.8,1.794,14.831,1.67,30.253,1.6,15.422.074,31.494.271,47.294-1.522,6.818-.774,14.069-1.753,19.4-6.992,5.015-4.928,7.433-12.867,8.283-20.649,1.871-17.136-2.777-34.31-8.411-50.174s-12.381-31.4-15.078-48.365c-.68-4.275-1.134-8.745-3-12.461s-5.658-6.448-9.014-4.96c-5.349,2.375-5.064,12.177-9.251,16.878C541.554,444.171,528.882,444.175,522.543,444.4Z" transform="translate(341.621 -183.188)" fill="none" stroke="hsla(140, 6%, 15%, 1)" stroke-linecap="round" stroke-linejoin="round" stroke-width="4"/>
      <path id="Path_145" data-name="Path 145" d="M540.34,569.214c3.891-4.487,5.877-11.855,6.035-17.792a48.635,48.635,0,0,0-3.242-17.416c-1.56-4.395-3.533-8.743-6.669-12.193s-7.611-5.919-12.272-5.76c-6.309.214-11.567,5.068-14.833,10.47-7.781,12.869-7.074,30.765,1.89,42.84" transform="translate(341.621 -183.188)" fill="none" stroke="hsla(140, 6%, 15%, 1)" stroke-linecap="round" stroke-linejoin="round" stroke-width="4"/>
      <path id="Path_146" data-name="Path 146" d="M588.508,538.207c-4.738,1.526-5.727,1.872-10.689,2.249" transform="translate(341.621 -183.188)" fill="hsla(140, 6%, 15%, 1)" stroke="hsla(140, 6%, 15%, 1)" stroke-linecap="round" stroke-linejoin="round" stroke-width="4"/>
      <path id="Path_147" data-name="Path 147" d="M588.746,525.8a70.85,70.85,0,0,1-10.612,2.512" transform="translate(341.621 -183.188)" fill="hsla(140, 6%, 15%, 1)" stroke="hsla(140, 6%, 15%, 1)" stroke-linecap="round" stroke-linejoin="round" stroke-width="4"/>
      <path id="Path_148" data-name="Path 148" d="M586.481,512.08c-3.709,1.954-4.555,2.457-8.662,3.306" transform="translate(341.621 -183.188)" fill="hsla(140, 6%, 15%, 1)" stroke="hsla(140, 6%, 15%, 1)" stroke-linecap="round" stroke-linejoin="round" stroke-width="4"/>
      <path id="Path_149" data-name="Path 149" d="M468.388,543.138c-5.046.631-7.194.632-11.955-.71" transform="translate(341.621 -183.188)" fill="hsla(140, 6%, 15%, 1)" stroke="hsla(140, 6%, 15%, 1)" stroke-linecap="round" stroke-linejoin="round" stroke-width="4"/>
      <path id="Path_150" data-name="Path 150" d="M468.545,533.046c-5.677.315-7.051.536-11.864-.57" transform="translate(341.621 -183.188)" fill="hsla(140, 6%, 15%, 1)" stroke="hsla(140, 6%, 15%, 1)" stroke-linecap="round" stroke-linejoin="round" stroke-width="4"/>
      <path id="Path_151" data-name="Path 151" d="M467.283,521.772a25.573,25.573,0,0,1-10.157-.536" transform="translate(341.621 -183.188)" fill="hsla(140, 6%, 15%, 1)" stroke="hsla(140, 6%, 15%, 1)" stroke-linecap="round" stroke-linejoin="round" stroke-width="4"/>
      <path id="Path_152" data-name="Path 152" d="M517.08,498.02a6.724,6.724,0,0,0,5.951-5.764" transform="translate(341.621 -183.188)" fill="hsla(140, 6%, 15%, 1)" stroke="hsla(140, 6%, 15%, 1)" stroke-linecap="round" stroke-linejoin="round" stroke-width="4"/>
      <path id="Path_153" data-name="Path 153" d="M528.423,497.757a5.741,5.741,0,0,1-5.393-5.5" transform="translate(341.621 -183.188)" fill="hsla(140, 6%, 15%, 1)" stroke="hsla(140, 6%, 15%, 1)" stroke-linecap="round" stroke-linejoin="round" stroke-width="4"/>
      <path id="Path_154" data-name="Path 154" d="M526.281,556.855l4.967-.063" transform="translate(341.621 -183.188)" fill="hsla(140, 6%, 15%, 1)" stroke="hsla(140, 6%, 15%, 1)" stroke-linecap="round" stroke-linejoin="round" stroke-width="4"/>
      <path id="Path_155" data-name="Path 155" d="M517.288,543.951l9.7-.181" transform="translate(341.621 -183.188)" fill="hsla(140, 6%, 15%, 1)" stroke="hsla(140, 6%, 15%, 1)" stroke-linecap="round" stroke-linejoin="round" stroke-width="4"/>
      <path id="Path_156" data-name="Path 156" d="M524.416,482.941c.369.053.792.172.93.516.154.384-.14.792-.426,1.09a14.437,14.437,0,0,1-1.414,1.284.9.9,0,0,1-.252.157.671.671,0,0,1-.369.005,1.549,1.549,0,0,1-.869-.631,4.568,4.568,0,0,1-.49-.978c-.334-.82-.754-1.394.35-1.511A10.234,10.234,0,0,1,524.416,482.941Z" transform="translate(341.621 -183.188)" fill="hsla(140, 6%, 15%, 1)" stroke="hsla(140, 6%, 15%, 1)" stroke-linecap="round" stroke-linejoin="round" stroke-width="4"/>
      <path id="Path_157" data-name="Path 157" d="M504.071,471.062a5.825,5.825,0,0,0,10.773-2.213" transform="translate(341.621 -183.188)" fill="none" stroke="hsla(140, 6%, 15%, 1)" stroke-linecap="round" stroke-linejoin="round" stroke-width="4"/>
      <path id="Path_158" data-name="Path 158" d="M531.976,469.16a5.827,5.827,0,0,0,10.942,1.113" transform="translate(341.621 -183.188)" fill="none" stroke="hsla(140, 6%, 15%, 1)" stroke-linecap="round" stroke-linejoin="round" stroke-width="4"/>
    </g>
  </g>
</svg>
