<svg xmlns="http://www.w3.org/2000/svg" width="61" height="81" viewBox="0 0 61 81">
  <g id="Group_1010" data-name="Group 1010" transform="translate(3 3)">
    <path id="Union_22" data-name="Union 22" d="M5,65V10H0V0H45V10H40V65Z" transform="translate(5 5)" fill="hsla(0, 0%, 100%, 1)"/>
    <path id="Union_20" data-name="Union 20" d="M5,20V10h5V20ZM10,5V0h5V5ZM0,5V0H5V5Z" transform="translate(20 20)" fill="hsla(140, 6%, 15%, 1)"/>
    <g id="Union_19" data-name="Union 19" transform="translate(0)" fill="hsla(140, 6%, 15%, 1)" stroke-linejoin="round">
      <path d="M 36.49994277954102 76.50010681152344 L 34.99994277954102 76.50010681152344 L 20.00006675720215 76.50010681152344 L 18.50006675720215 76.50010681152344 L 18.50006675720215 75.00010681152344 L 18.50006675720215 71.50009918212891 L 9.999921798706055 71.50009918212891 L 8.499921798706055 71.50009918212891 L 8.499921798706055 70.00009918212891 L 8.499921798706055 66.49997711181641 L 4.999955654144287 66.49997711181641 L 3.499955654144287 66.49997711181641 L 3.499955654144287 64.99997711181641 L 3.499955654144287 16.49984169006348 L 0 16.49984169006348 L -1.5 16.49984169006348 L -1.5 14.99984264373779 L -1.5 4.999953269958496 L -1.5 3.499953508377075 L 0 3.499953508377075 L 3.499955654144287 3.499953508377075 L 3.499955654144287 -2.149793772332487e-06 L 3.499955654144287 -1.500002145767212 L 4.999955654144287 -1.500002145767212 L 14.9998779296875 -1.500002145767212 L 16.4998779296875 -1.500002145767212 L 16.4998779296875 -2.149793772332487e-06 L 16.4998779296875 3.499953508377075 L 38.5001220703125 3.499953508377075 L 38.5001220703125 -2.149793772332487e-06 L 38.5001220703125 -1.500002145767212 L 40.0001220703125 -1.500002145767212 L 50.00003433227539 -1.500002145767212 L 51.50003433227539 -1.500002145767212 L 51.50003433227539 -2.149793772332487e-06 L 51.50003433227539 3.499953508377075 L 55 3.499953508377075 L 56.5 3.499953508377075 L 56.5 4.999953269958496 L 56.5 14.99984264373779 L 56.5 16.49984169006348 L 55 16.49984169006348 L 51.50003433227539 16.49984169006348 L 51.50003433227539 64.99997711181641 L 51.50003433227539 66.49997711181641 L 50.00003433227539 66.49997711181641 L 46.50007629394531 66.49997711181641 L 46.50007629394531 70.00009918212891 L 46.50007629394531 71.50009918212891 L 45.00007629394531 71.50009918212891 L 36.49994277954102 71.50009918212891 L 36.49994277954102 75.00010681152344 L 36.49994277954102 76.50010681152344 Z M 21.50006675720215 68.50009918212891 L 33.49994277954102 68.50009918212891 L 33.49994277954102 64.99997711181641 L 33.49994277954102 63.49997711181641 L 34.99994277954102 63.49997711181641 L 43.50007629394531 63.49997711181641 L 43.50007629394531 14.99984264373779 L 43.50007629394531 13.49984264373779 L 45.00007629394531 13.49984264373779 L 48.50003433227539 13.49984264373779 L 48.50003433227539 6.499953269958496 L 41.5001220703125 6.499953269958496 L 41.5001220703125 9.999897956848145 L 41.5001220703125 11.49989795684814 L 40.0001220703125 11.49989795684814 L 14.9998779296875 11.49989795684814 L 13.4998779296875 11.49989795684814 L 13.4998779296875 9.999897956848145 L 13.4998779296875 6.499953269958496 L 6.499955654144287 6.499953269958496 L 6.499955654144287 13.49984264373779 L 9.999921798706055 13.49984264373779 L 11.49992179870605 13.49984264373779 L 11.49992179870605 14.99984264373779 L 11.49992179870605 63.49997711181641 L 20.00006675720215 63.49997711181641 L 21.50006675720215 63.49997711181641 L 21.50006675720215 64.99997711181641 L 21.50006675720215 68.50009918212891 Z" stroke="none"/>
      <path d="M 34.99993896484375 75.00010681152344 L 34.99993896484375 70.00010681152344 L 20.00006294250488 70.00010681152344 L 20.00006294250488 64.99996948242188 L 9.999924659729004 64.99996948242188 L 9.999924659729004 70.00010681152344 L 20.00006294250488 70.00010681152344 L 20.00006294250488 75.00010681152344 L 34.99993896484375 75.00010681152344 M 45.00007629394531 70.00010681152344 L 45.00007629394531 64.99996948242188 L 34.99993896484375 64.99996948242188 L 34.99993896484375 70.00010681152344 L 45.00007629394531 70.00010681152344 M 50.00003814697266 64.99996948242188 L 50.00003814697266 14.99984073638916 L 45.00007629394531 14.99984073638916 L 45.00007629394531 64.99996948242188 L 50.00003814697266 64.99996948242188 M 9.999924659729004 64.99996948242188 L 9.999924659729004 14.99984073638916 L 4.999962329864502 14.99984073638916 L 4.999962329864502 4.999953269958496 L 0 4.999953269958496 L 0 14.99984073638916 L 4.999962329864502 14.99984073638916 L 4.999962329864502 64.99996948242188 L 9.999924659729004 64.99996948242188 M 55 14.99984073638916 L 55 4.999953269958496 L 50.00003814697266 4.999953269958496 L 50.00003814697266 14.99984073638916 L 55 14.99984073638916 M 40.0001106262207 9.99989128112793 L 40.0001106262207 4.999953269958496 L 14.99987506866455 4.999953269958496 L 14.99987506866455 3.405761617614189e-06 L 4.999962329864502 3.405761617614189e-06 L 4.999962329864502 4.999953269958496 L 14.99987506866455 4.999953269958496 L 14.99987506866455 9.99989128112793 L 40.0001106262207 9.99989128112793 M 50.00003814697266 4.999953269958496 L 50.00003814697266 3.405761617614189e-06 L 40.0001106262207 3.405761617614189e-06 L 40.0001106262207 4.999953269958496 L 50.00003814697266 4.999953269958496 M 34.99993896484375 78.00010681152344 L 20.00006294250488 78.00010681152344 C 18.34321212768555 78.00010681152344 17.00006294250488 76.65695190429688 17.00006294250488 75.00010681152344 L 17.00006294250488 73.00010681152344 L 9.999924659729004 73.00010681152344 C 8.343074798583984 73.00010681152344 6.999925136566162 71.65695190429688 6.999925136566162 70.00010681152344 L 6.999925136566162 67.99996948242188 L 4.999962329864502 67.99996948242188 C 3.343112468719482 67.99996948242188 1.999962449073792 66.65681457519531 1.999962449073792 64.99996948242188 L 1.999962449073792 17.99984169006348 L 0 17.99984169006348 C -1.656849980354309 17.99984169006348 -3 16.65669059753418 -3 14.99984073638916 L -3 4.999953269958496 C -3 3.343103408813477 -1.656849980354309 1.999953389167786 0 1.999953389167786 L 1.999962449073792 1.999953389167786 L 1.999962449073792 3.405761617614189e-06 C 1.999962449073792 -1.656846642494202 3.343112468719482 -2.999996662139893 4.999962329864502 -2.999996662139893 L 14.99987506866455 -2.999996662139893 C 16.65672492980957 -2.999996662139893 17.99987411499023 -1.656846642494202 17.99987411499023 3.405761617614189e-06 L 17.99987411499023 1.999953389167786 L 37.0001106262207 1.999953389167786 L 37.0001106262207 3.405761617614189e-06 C 37.0001106262207 -1.656846642494202 38.34326171875 -2.999996662139893 40.0001106262207 -2.999996662139893 L 50.00003814697266 -2.999996662139893 C 51.65688705444336 -2.999996662139893 53.00003814697266 -1.656846642494202 53.00003814697266 3.405761617614189e-06 L 53.00003814697266 1.999953389167786 L 55 1.999953389167786 C 56.6568489074707 1.999953389167786 58 3.343103408813477 58 4.999953269958496 L 58 14.99984073638916 C 58 16.65669059753418 56.6568489074707 17.99984169006348 55 17.99984169006348 L 53.00003814697266 17.99984169006348 L 53.00003814697266 64.99996948242188 C 53.00003814697266 66.65681457519531 51.65688705444336 67.99996948242188 50.00003814697266 67.99996948242188 L 48.00007629394531 67.99996948242188 L 48.00007629394531 70.00010681152344 C 48.00007629394531 71.65695190429688 46.65692520141602 73.00010681152344 45.00007629394531 73.00010681152344 L 37.99993896484375 73.00010681152344 L 37.99993896484375 75.00010681152344 C 37.99993896484375 76.65695190429688 36.65678787231445 78.00010681152344 34.99993896484375 78.00010681152344 Z M 23.00006294250488 67.00010681152344 L 31.99993705749512 67.00010681152344 L 31.99993705749512 64.99996948242188 C 31.99993705749512 63.34311676025391 33.34308624267578 61.99996566772461 34.99993896484375 61.99996566772461 L 42.00007629394531 61.99996566772461 L 42.00007629394531 14.99984073638916 C 42.00007629394531 13.34299087524414 43.34322357177734 11.99984073638916 45.00007629394531 11.99984073638916 L 47.00003814697266 11.99984073638916 L 47.00003814697266 7.999953269958496 L 43.0001106262207 7.999953269958496 L 43.0001106262207 9.99989128112793 C 43.0001106262207 11.65674114227295 41.65696334838867 12.99989128112793 40.0001106262207 12.99989128112793 L 14.99987506866455 12.99989128112793 C 13.34302520751953 12.99989128112793 11.99987506866455 11.65674114227295 11.99987506866455 9.99989128112793 L 11.99987506866455 7.999953269958496 L 7.999962329864502 7.999953269958496 L 7.999962329864502 11.99984073638916 L 9.999924659729004 11.99984073638916 C 11.65677547454834 11.99984073638916 12.999924659729 13.34299087524414 12.999924659729 14.99984073638916 L 12.999924659729 61.99996566772461 L 20.00006294250488 61.99996566772461 C 21.65691184997559 61.99996566772461 23.00006294250488 63.34311676025391 23.00006294250488 64.99996948242188 L 23.00006294250488 67.00010681152344 Z" stroke="none" fill="hsla(0, 0%, 100%, 1)"/>
    </g>
    <path id="Union_21" data-name="Union 21" d="M0,0H15V10H0Z" transform="translate(20 60)" fill="hsla(40, 100%, 60%, 1)"/>
  </g>
</svg>
