<svg xmlns="http://www.w3.org/2000/svg" xmlns:xlink="http://www.w3.org/1999/xlink" width="160" height="200" viewBox="0 0 160 200">
  <defs>
    <clipPath id="clip-cat">
      <rect width="160" height="200"/>
    </clipPath>
  </defs>
  <g id="cat" clip-path="url(#clip-cat)">
    <g id="Group_7" data-name="Group 7" transform="translate(-1257.303 -191.959)">
      <path id="Path_188" data-name="Path 188" d="M845.661,567.675c-13.127,0-36.155-1.687-41.041-6.8-5.587-5.851-5.688-14.879-5.407-22.965,1.106-31.893,7.7-64.683-2.731-94.842-1.08-3.127-2.3-6.305-2.24-9.613s1.78-6.841,4.907-7.924c4.105-1.422,8.2,1.742,11.863,4.071,8.933,5.67,26.713,5.61,36.528,5.61s21.389.059,30.321-5.61c3.667-2.329,7.758-5.492,11.863-4.071,3.128,1.083,4.843,4.616,4.907,7.924s-1.159,6.486-2.24,9.613c-10.431,30.159-3.124,62.952-2.016,94.842.281,8.085.179,17.114-5.408,22.965C880.083,565.989,858.788,567.675,845.661,567.675Z" transform="translate(470.063 -183.188)" fill="hsla(0, 0%, 100%, 1)" stroke="hsla(0, 0%, 100%, 1)" stroke-linecap="round" stroke-linejoin="round" stroke-width="12"/>
      <path id="Path_5294" data-name="Path 5294" d="M872.263,551.048c-1.853-14.325,4.343-44.9-18.51-43.99-12.708,2.276-35.506,2.3-33.583,19.636a142.836,142.836,0,0,0,3.965,31.212,54.706,54.706,0,0,0,2.713,8.849c6.657.659,13.535.932,18.813.932a170.234,170.234,0,0,0,24.272-1.708C872.189,562.79,873.088,558.06,872.263,551.048Z" transform="translate(470.063 -183.188)" fill="hsla(40, 100%, 60%, 1)" opacity="0.5" style="isolation: isolate"/>
      <path id="Path_188-2" data-name="Path 188" d="M845.661,567.675c-13.127,0-36.155-1.687-41.041-6.8-5.587-5.851-5.688-14.879-5.407-22.965,1.106-31.893,7.7-64.683-2.731-94.842-1.08-3.127-2.3-6.305-2.24-9.613s1.78-6.841,4.907-7.924c4.105-1.422,8.2,1.742,11.863,4.071,8.933,5.67,26.713,5.61,36.528,5.61s21.389.059,30.321-5.61c3.667-2.329,7.758-5.492,11.863-4.071,3.128,1.083,4.843,4.616,4.907,7.924s-1.159,6.486-2.24,9.613c-10.431,30.159-3.124,62.952-2.016,94.842.281,8.085.179,17.114-5.408,22.965C880.083,565.989,858.788,567.675,845.661,567.675Z" transform="translate(470.063 -183.188)" fill="none" stroke="hsla(140, 6%, 15%, 1)" stroke-linecap="round" stroke-linejoin="round" stroke-width="4"/>
      <path id="Path_178" data-name="Path 178" d="M840.013,539.711a6.258,6.258,0,0,1,.6-5.862,18.486,18.486,0,0,1,4.25-4.4,1.3,1.3,0,0,1,1-.422.877.877,0,0,1,.617.9,2.566,2.566,0,0,1-.387,1.114l-4.152,7.786a2.541,2.541,0,0,1-.885,1.1.74.74,0,0,1-1.029-.193Z" transform="translate(470.063 -183.188)" fill="hsla(140, 6%, 15%, 1)" stroke="hsla(140, 6%, 15%, 1)" stroke-linecap="round" stroke-linejoin="round" stroke-width="4"/>
      <path id="Path_179" data-name="Path 179" d="M860.107,549.737a5.209,5.209,0,0,1,1.651,4.342,14.119,14.119,0,0,1-1.317,4.613c-.374.883-1.092,1.936-2.015,1.674-.819-.233-.993-1.3-.991-2.151a53.479,53.479,0,0,1,.35-5.948,5.027,5.027,0,0,1,.546-2.033C858.7,549.629,859.4,549.155,860.107,549.737Z" transform="translate(470.063 -183.188)" fill="hsla(140, 6%, 15%, 1)" stroke="hsla(140, 6%, 15%, 1)" stroke-linecap="round" stroke-linejoin="round" stroke-width="4"/>
      <path id="Path_180" data-name="Path 180" d="M861.019,529.856a3.434,3.434,0,0,1,2.328,3.046,7.841,7.841,0,0,1-.878,3.935c-.14.311-.328.653-.66.731-.631.146-.963-.717-1.024-1.365A18.176,18.176,0,0,1,861.019,529.856Z" transform="translate(470.063 -183.188)" fill="hsla(140, 6%, 15%, 1)" stroke="hsla(140, 6%, 15%, 1)" stroke-linecap="round" stroke-linejoin="round" stroke-width="4"/>
      <path id="Path_181" data-name="Path 181" d="M830.192,539.446a3.436,3.436,0,0,1-2.738-2.683,7.861,7.861,0,0,1,.308-4.023,1.133,1.133,0,0,1,.549-.817c.605-.236,1.059.571,1.209,1.205A18.221,18.221,0,0,1,830.192,539.446Z" transform="translate(470.063 -183.188)" fill="hsla(140, 6%, 15%, 1)" stroke="hsla(140, 6%, 15%, 1)" stroke-linecap="round" stroke-linejoin="round" stroke-width="4"/>
      <path id="Path_182" data-name="Path 182" d="M854.266,515.791c2.384.694,3.132,6.825.42,7.116C853.595,521.591,852.828,516.388,854.266,515.791Z" transform="translate(470.063 -183.188)" fill="hsla(140, 6%, 15%, 1)" stroke="hsla(140, 6%, 15%, 1)" stroke-linecap="round" stroke-linejoin="round" stroke-width="4"/>
      <path id="Path_183" data-name="Path 183" d="M842.98,515.689a7.251,7.251,0,0,1,1.135,4.984,3.09,3.09,0,0,1-2.047-2.236A2.748,2.748,0,0,1,842.98,515.689Z" transform="translate(470.063 -183.188)" fill="hsla(140, 6%, 15%, 1)" stroke="hsla(140, 6%, 15%, 1)" stroke-linecap="round" stroke-linejoin="round" stroke-width="4"/>
      <path id="Path_186" data-name="Path 186" d="M830.855,549.49a17.7,17.7,0,0,1,1.38,4.136c.092.457.125,1.023-.255,1.291-.556.39-1.259-.292-1.479-.933A6.524,6.524,0,0,1,830.855,549.49Z" transform="translate(470.063 -183.188)" fill="hsla(140, 6%, 15%, 1)" stroke="hsla(140, 6%, 15%, 1)" stroke-linecap="round" stroke-linejoin="round" stroke-width="4"/>
      <path id="Path_187" data-name="Path 187" d="M831.272,523.433a6.424,6.424,0,0,0,1.959-5.119,5.568,5.568,0,0,0-3.5,3.927,1.578,1.578,0,0,0,.191,1.4C830.251,524.012,830.879,523.8,831.272,523.433Z" transform="translate(470.063 -183.188)" fill="hsla(140, 6%, 15%, 1)" stroke="hsla(140, 6%, 15%, 1)" stroke-linecap="round" stroke-linejoin="round" stroke-width="4"/>
      <path id="Path_187-2" data-name="Path 187" d="M851.557,544.827a6.426,6.426,0,0,0,1.959-5.12,5.57,5.57,0,0,0-3.5,3.928,1.576,1.576,0,0,0,.191,1.4C850.536,545.405,851.164,545.2,851.557,544.827Z" transform="translate(470.063 -183.188)" fill="hsla(140, 6%, 15%, 1)" stroke="hsla(140, 6%, 15%, 1)" stroke-linecap="round" stroke-linejoin="round" stroke-width="4"/>
      <path id="Path_189" data-name="Path 189" d="M844.773,558.21c-2.522-.585-4.5-7.921-1.847-8.563C844.28,551.124,846.091,557.335,844.773,558.21Z" transform="translate(470.063 -183.188)" fill="hsla(140, 6%, 15%, 1)" stroke="hsla(140, 6%, 15%, 1)" stroke-linecap="round" stroke-linejoin="round" stroke-width="4"/>
      <path id="Path_190" data-name="Path 190" d="M846.6,481.425a3.948,3.948,0,0,0-1.663-.332,3.606,3.606,0,0,0-1.667.364,1.943,1.943,0,0,0-.7.6,1.682,1.682,0,0,0-.3.968,2.325,2.325,0,0,0,.175.855,3.648,3.648,0,0,0,.841,1.256,2.761,2.761,0,0,0,.687.493,2.017,2.017,0,0,0,.9.219,1.811,1.811,0,0,0,.4-.043,2.69,2.69,0,0,0,.841-.359,4.043,4.043,0,0,0,1.069-.976,2.418,2.418,0,0,0,.539-1.428,1.634,1.634,0,0,0-.293-.942,2.113,2.113,0,0,0-.831-.677" transform="translate(470.063 -183.188)" fill="hsla(140, 6%, 15%, 1)" stroke="hsla(140, 6%, 15%, 1)" stroke-linecap="round" stroke-linejoin="round" stroke-width="4"/>
      <path id="Path_191" data-name="Path 191" d="M869.483,480.672c-1.881.87-1.991.773-4.683,1.254" transform="translate(470.063 -183.188)" fill="hsla(140, 6%, 15%, 1)" stroke="hsla(140, 6%, 15%, 1)" stroke-linecap="round" stroke-linejoin="round" stroke-width="4"/>
      <path id="Path_192" data-name="Path 192" d="M869.095,491.369a12.274,12.274,0,0,0-4.572-2.1" transform="translate(470.063 -183.188)" fill="hsla(140, 6%, 15%, 1)" stroke="hsla(140, 6%, 15%, 1)" stroke-linecap="round" stroke-linejoin="round" stroke-width="4"/>
      <path id="Path_193" data-name="Path 193" d="M820.5,481.337a13.677,13.677,0,0,0,4.621,1.369" transform="translate(470.063 -183.188)" fill="hsla(140, 6%, 15%, 1)" stroke="hsla(140, 6%, 15%, 1)" stroke-linecap="round" stroke-linejoin="round" stroke-width="4"/>
      <path id="Path_194" data-name="Path 194" d="M821.827,491.646a10.463,10.463,0,0,1,4.224-1.924" transform="translate(470.063 -183.188)" fill="hsla(140, 6%, 15%, 1)" stroke="hsla(140, 6%, 15%, 1)" stroke-linecap="round" stroke-linejoin="round" stroke-width="4"/>
      <path id="Path_195" data-name="Path 195" d="M845.222,483.138a30.146,30.146,0,0,0,.851,13.168" transform="translate(470.063 -183.188)" fill="hsla(140, 6%, 15%, 1)" stroke="hsla(140, 6%, 15%, 1)" stroke-linecap="round" stroke-linejoin="round" stroke-width="4"/>
      <path id="Path_139" data-name="Path 139" d="M837.356,470.623a4.307,4.307,0,0,0-.05-1.965,1.466,1.466,0,0,0-1.524-.995,1.36,1.36,0,0,0-.932.832,2.752,2.752,0,0,0-.152,1.278,2.883,2.883,0,0,0,.3,1.155,1.446,1.446,0,0,0,.9.74,1.255,1.255,0,0,0,1.452-1.021l0-.023" transform="translate(470.063 -183.188)" fill="hsla(140, 6%, 15%, 1)" stroke="hsla(140, 6%, 15%, 1)" stroke-linecap="round" stroke-linejoin="round" stroke-width="4"/>
      <path id="Path_140" data-name="Path 140" d="M854.867,470.637a4.493,4.493,0,0,0-.088-2.043,1.525,1.525,0,0,0-1.6-1.006,1.409,1.409,0,0,0-.954.882,2.856,2.856,0,0,0-.132,1.332,2.993,2.993,0,0,0,.332,1.2,1.51,1.51,0,0,0,.951.754,1.305,1.305,0,0,0,1.491-1.089l0-.025" transform="translate(470.063 -183.188)" fill="hsla(140, 6%, 15%, 1)" stroke="hsla(140, 6%, 15%, 1)" stroke-linecap="round" stroke-linejoin="round" stroke-width="4"/>
      <path id="Path_194-2" data-name="Path 194" d="M827.7,462.97c1.238-3.1,4.325-4.473,7.763-4.149" transform="translate(470.063 -183.188)" fill="hsla(140, 6%, 15%, 1)" stroke="hsla(140, 6%, 15%, 1)" stroke-linecap="round" stroke-linejoin="round" stroke-width="4"/>
      <path id="Path_192-2" data-name="Path 192" d="M858.224,458.971a26.408,26.408,0,0,0-7.4-.077" transform="translate(470.063 -183.188)" fill="hsla(140, 6%, 15%, 1)" stroke="hsla(140, 6%, 15%, 1)" stroke-linecap="round" stroke-linejoin="round" stroke-width="4"/>
    </g>
  </g>
</svg>
