<svg xmlns="http://www.w3.org/2000/svg" width="56" height="81" viewBox="0 0 56 81">
  <g id="Group_1012" data-name="Group 1012" transform="translate(-1615 -766)">
    <g id="Path_5690" data-name="Path 5690" transform="translate(1618 769)" fill="hsla(0, 0%, 100%, 1)" stroke-linecap="round" stroke-linejoin="round">
      <path d="M 46.50009155273438 76.49951171875 L 45.00009155273438 76.49951171875 L 5.000193119049072 76.49951171875 L 3.500192880630493 76.49951171875 L 3.500192880630493 74.99951171875 L 3.500192880630493 71.49952697753906 L 0.0002039957616943866 71.49952697753906 L -1.499796032905579 71.49952697753906 L -1.499796032905579 69.99952697753906 L -1.499796032905579 44.99958038330078 L -1.499796032905579 43.49958038330078 L 0.0002039957616943866 43.49958038330078 L 3.500192880630493 43.49958038330078 L 3.500192880630493 4.999680995941162 L 3.500192880630493 3.499680995941162 L 5.000193119049072 3.499680995941162 L 8.500170707702637 3.499680995941162 L 8.500170707702637 -0.0003078396257478744 L 8.500170707702637 -1.50030779838562 L 10.00017070770264 -1.50030779838562 L 14.99965953826904 -1.50030779838562 L 16.49966049194336 -1.50030779838562 L 16.49966049194336 -0.0003078396257478744 L 16.49966049194336 3.499680995941162 L 33.50011444091797 3.499680995941162 L 33.50011444091797 -0.0003078396257478744 L 33.50011444091797 -1.50030779838562 L 35.00011444091797 -1.50030779838562 L 40.00010299682617 -1.50030779838562 L 41.50010299682617 -1.50030779838562 L 41.50010299682617 -0.0003078396257478744 L 41.50010299682617 3.499680995941162 L 45.00009155273438 3.499680995941162 L 46.50009155273438 3.499680995941162 L 46.50009155273438 4.999680995941162 L 46.50009155273438 43.49958038330078 L 50.00008010864258 43.49958038330078 L 51.50008010864258 43.49958038330078 L 51.50008010864258 44.99958038330078 L 51.50008010864258 69.99952697753906 L 51.50008010864258 71.49952697753906 L 50.00008010864258 71.49952697753906 L 46.50009155273438 71.49952697753906 L 46.50009155273438 74.99951171875 L 46.50009155273438 76.49951171875 Z" stroke="none"/>
      <path d="M 10.00017547607422 -0.00031280517578125 L 10.00017547607422 4.999679565429688 L 5.000186920166016 4.999679565429688 L 5.000186920166016 44.99958038330078 L 0.0001983642578125 44.99958038330078 L 0.0001983642578125 69.99952697753906 L 5.000186920166016 69.99952697753906 L 5.000186920166016 74.99951934814453 L 45.00008773803711 74.99951934814453 L 45.00008773803711 69.99952697753906 L 50.00007629394531 69.99952697753906 L 50.00007629394531 44.99958038330078 L 45.00008773803711 44.99958038330078 L 45.00008773803711 4.999679565429688 L 40.00009918212891 4.999679565429688 L 40.00009918212891 -0.00031280517578125 L 35.00011444091797 -0.00031280517578125 L 35.00011444091797 4.999679565429688 L 14.99966049194336 4.999679565429688 L 14.99966049194336 -0.00031280517578125 L 10.00017547607422 -0.00031280517578125 M 10.00017547607422 -3.000312805175781 L 14.99966049194336 -3.000312805175781 C 16.65651321411133 -3.000312805175781 17.99966049194336 -1.657157897949219 17.99966049194336 -0.00031280517578125 L 17.99966049194336 1.999679565429688 L 32.00011444091797 1.999679565429688 L 32.00011444091797 -0.00031280517578125 C 32.00011444091797 -1.657157897949219 33.34326171875 -3.000312805175781 35.00011444091797 -3.000312805175781 L 40.00009918212891 -3.000312805175781 C 41.65695190429688 -3.000312805175781 43.00009918212891 -1.657157897949219 43.00009918212891 -0.00031280517578125 L 43.00009918212891 1.999679565429688 L 45.00008773803711 1.999679565429688 C 46.65693664550781 1.999679565429688 48.00008773803711 3.342826843261719 48.00008773803711 4.999679565429688 L 48.00008773803711 41.99957656860352 L 50.00007629394531 41.99957656860352 C 51.65692520141602 41.99957656860352 53.00007629394531 43.34272766113281 53.00007629394531 44.99958038330078 L 53.00007629394531 69.99952697753906 C 53.00007629394531 71.65637969970703 51.65692520141602 72.99952697753906 50.00007629394531 72.99952697753906 L 48.00008773803711 72.99952697753906 L 48.00008773803711 74.99951934814453 C 48.00008773803711 76.65636444091797 46.65693664550781 77.99951934814453 45.00008773803711 77.99951934814453 L 5.000186920166016 77.99951934814453 C 3.343338012695312 77.99951934814453 2.000186920166016 76.65636444091797 2.000186920166016 74.99951934814453 L 2.000186920166016 72.99952697753906 L 0.0001983642578125 72.99952697753906 C -1.656650543212891 72.99952697753906 -2.999801635742188 71.65637969970703 -2.999801635742188 69.99952697753906 L -2.999801635742188 44.99958038330078 C -2.999801635742188 43.34272766113281 -1.656650543212891 41.99957656860352 0.0001983642578125 41.99957656860352 L 2.000186920166016 41.99957656860352 L 2.000186920166016 4.999679565429688 C 2.000186920166016 3.342826843261719 3.343338012695312 1.999679565429688 5.000186920166016 1.999679565429688 L 7.000175476074219 1.999679565429688 L 7.000175476074219 -0.00031280517578125 C 7.000175476074219 -1.657157897949219 8.343326568603516 -3.000312805175781 10.00017547607422 -3.000312805175781 Z" stroke="none" fill="hsla(0, 0%, 100%, 1)"/>
    </g>
    <rect id="Rectangle_525" data-name="Rectangle 525" width="5" height="5" transform="translate(1633 789)" fill="hsla(140, 6%, 15%, 1)"/>
    <rect id="Rectangle_526" data-name="Rectangle 526" width="5" height="5" transform="translate(1648 789)" fill="hsla(140, 6%, 15%, 1)"/>
    <path id="Path_5691" data-name="Path 5691" d="M45,60v5H40v5H50V60Z" transform="translate(1598 739)" fill="hsla(140, 6%, 15%, 1)"/>
    <rect id="Rectangle_527" data-name="Rectangle 527" width="5" height="40" transform="translate(1623 774)" fill="hsla(140, 6%, 15%, 1)"/>
    <rect id="Rectangle_528" data-name="Rectangle 528" width="5" height="25" transform="translate(1618 814)" fill="hsla(140, 6%, 15%, 1)"/>
    <rect id="Rectangle_529" data-name="Rectangle 529" width="5" height="25" transform="translate(1663 814)" fill="hsla(140, 6%, 15%, 1)"/>
    <rect id="Rectangle_530" data-name="Rectangle 530" width="5" height="40" transform="translate(1658 774)" fill="hsla(140, 6%, 15%, 1)"/>
    <rect id="Rectangle_531" data-name="Rectangle 531" width="40" height="5" transform="translate(1623 839)" fill="hsla(140, 6%, 15%, 1)"/>
    <rect id="Rectangle_532" data-name="Rectangle 532" width="20" height="5" transform="translate(1633 774)" fill="hsla(140, 6%, 15%, 1)"/>
    <rect id="Rectangle_533" data-name="Rectangle 533" width="5" height="5" transform="translate(1628 769)" fill="hsla(140, 6%, 15%, 1)"/>
    <rect id="Rectangle_534" data-name="Rectangle 534" width="5" height="5" transform="translate(1653 769)" fill="hsla(140, 6%, 15%, 1)"/>
    <path id="Path_5692" data-name="Path 5692" d="M40,100v10h5v5h5V100Z" transform="translate(1598 719)" fill="hsla(10, 90%, 60%, 1)"/>
  </g>
</svg>
