<svg xmlns="http://www.w3.org/2000/svg" xmlns:xlink="http://www.w3.org/1999/xlink" width="160" height="200" viewBox="0 0 160 200">
  <defs>
    <clipPath id="clip-cat">
      <rect width="160" height="200"/>
    </clipPath>
  </defs>
  <g id="cat" clip-path="url(#clip-cat)">
    <g id="Group_9" data-name="Group 9" transform="translate(-548.303 -201.5)">
      <path id="Path_111" data-name="Path 111" d="M281.1,566.755c5.071-49.846,5.124-94.452,1.1-144.394-.7-7.056,1.944-12.664,8.351-14.318,12.062-.872,8.532,15.78,14.487,22,5.578,6.209,11.728,6.524,23.87,6.76,8.681-.2,19.646.552,24.282-20.262,2.329-10.438,14.507-9.7,16.133,1.712,8.253,53.068,16.505,100.446,24.758,153.514A206.036,206.036,0,0,1,281.1,566.755Z" transform="translate(274.207 -183.188)" fill="hsla(0, 0%, 100%, 1)" stroke="hsla(0, 0%, 100%, 1)" stroke-linecap="round" stroke-linejoin="round" stroke-width="12"/>
      <path id="Path_5304" data-name="Path 5304" d="M392.752,571.074c-2.891-18.586-5.781-36.447-8.671-54.113-13.961,5.794-44.83,18.791-88.38,11.351v0c-1.488,12.329-2.561,25.714-4.049,38.043-.085.7-.215,1.5-.315,2.307A199.23,199.23,0,0,0,392.752,571.074Z" transform="translate(274.207 -183.188)" fill="hsla(250, 100%, 75%, 1)" opacity="0.2" style="isolation: isolate"/>
      <path id="Path_111-2" data-name="Path 111" d="M281.1,566.755c5.071-49.846,5.124-94.452,1.1-144.394-.7-7.056,1.944-12.664,8.351-14.318,12.062-.872,8.532,15.78,14.487,22,5.578,6.209,11.728,6.524,23.87,6.76,8.681-.2,19.646.552,24.282-20.262,2.329-10.438,14.507-9.7,16.133,1.712,8.253,53.068,16.505,100.446,24.758,153.514A206.036,206.036,0,0,1,281.1,566.755Z" transform="translate(274.207 -183.188)" fill="none" stroke="hsla(140, 6%, 15%, 1)" stroke-linecap="round" stroke-linejoin="round" stroke-width="4"/>
      <path id="Path_113" data-name="Path 113" d="M328.035,487.3l6.022-.863a14.729,14.729,0,0,0-2.685,5.353C330.249,490.323,329.159,488.776,328.035,487.3Z" transform="translate(274.207 -183.188)" fill="hsla(140, 6%, 15%, 1)" stroke="hsla(140, 6%, 15%, 1)" stroke-linecap="round" stroke-linejoin="round" stroke-width="4"/>
      <path id="Path_114" data-name="Path 114" d="M331.376,491.794a40.457,40.457,0,0,0,.165,5.37" transform="translate(274.207 -183.188)" fill="hsla(140, 6%, 15%, 1)" stroke="hsla(140, 6%, 15%, 1)" stroke-linecap="round" stroke-linejoin="round" stroke-width="4"/>
      <path id="Path_115" data-name="Path 115" d="M331.539,497.139l-4.4,6.2" transform="translate(274.207 -183.188)" fill="hsla(140, 6%, 15%, 1)" stroke="hsla(140, 6%, 15%, 1)" stroke-linecap="round" stroke-linejoin="round" stroke-width="4"/>
      <path id="Path_116" data-name="Path 116" d="M331.535,497.163l5.471,5.29" transform="translate(274.207 -183.188)" fill="hsla(140, 6%, 15%, 1)" stroke="hsla(140, 6%, 15%, 1)" stroke-linecap="round" stroke-linejoin="round" stroke-width="4"/>
      <path id="Path_117" data-name="Path 117" d="M309.7,489.311l8.16.027" transform="translate(274.207 -183.188)" fill="hsla(140, 6%, 15%, 1)" stroke="hsla(140, 6%, 15%, 1)" stroke-linecap="round" stroke-linejoin="round" stroke-width="4"/>
      <path id="Path_118" data-name="Path 118" d="M311.245,500.6l7.915-3.329" transform="translate(274.207 -183.188)" fill="hsla(140, 6%, 15%, 1)" stroke="hsla(140, 6%, 15%, 1)" stroke-linecap="round" stroke-linejoin="round" stroke-width="4"/>
      <path id="Path_119" data-name="Path 119" d="M345.539,485.816l9.712-3.029" transform="translate(274.207 -183.188)" fill="hsla(140, 6%, 15%, 1)" stroke="hsla(140, 6%, 15%, 1)" stroke-linecap="round" stroke-linejoin="round" stroke-width="4"/>
      <path id="Path_120" data-name="Path 120" d="M346.361,492.245l8.162-.289" transform="translate(274.207 -183.188)" fill="hsla(140, 6%, 15%, 1)" stroke="hsla(140, 6%, 15%, 1)" stroke-linecap="round" stroke-linejoin="round" stroke-width="4"/>
      <path id="Path_122" data-name="Path 122" d="M306.03,537.644l.234,7.016" transform="translate(274.207 -183.188)" fill="hsla(140, 6%, 15%, 1)" stroke="hsla(140, 6%, 15%, 1)" stroke-linecap="round" stroke-linejoin="round" stroke-width="4"/>
      <path id="Path_124" data-name="Path 124" d="M302.312,556.633l.048,8.357" transform="translate(274.207 -183.188)" fill="hsla(140, 6%, 15%, 1)" stroke="hsla(140, 6%, 15%, 1)" stroke-linecap="round" stroke-linejoin="round" stroke-width="4"/>
      <path id="Path_126" data-name="Path 126" d="M331.462,542.289l-.064,9.855" transform="translate(274.207 -183.188)" fill="hsla(140, 6%, 15%, 1)" stroke="hsla(140, 6%, 15%, 1)" stroke-linecap="round" stroke-linejoin="round" stroke-width="4"/>
      <path id="Path_128" data-name="Path 128" d="M334.118,564.516l-.02,6.071" transform="translate(274.207 -183.188)" fill="hsla(140, 6%, 15%, 1)" stroke="hsla(140, 6%, 15%, 1)" stroke-linecap="round" stroke-linejoin="round" stroke-width="4"/>
      <path id="Path_130" data-name="Path 130" d="M354.433,555.962l.181,9.7" transform="translate(274.207 -183.188)" fill="hsla(140, 6%, 15%, 1)" stroke="hsla(140, 6%, 15%, 1)" stroke-linecap="round" stroke-linejoin="round" stroke-width="4"/>
      <path id="Path_132" data-name="Path 132" d="M378.494,555.718l.458,7.653" transform="translate(274.207 -183.188)" fill="hsla(140, 6%, 15%, 1)" stroke="hsla(140, 6%, 15%, 1)" stroke-linecap="round" stroke-linejoin="round" stroke-width="4"/>
      <path id="Path_133" data-name="Path 133" d="M367.71,539.514l.592,9.306" transform="translate(274.207 -183.188)" fill="hsla(140, 6%, 15%, 1)" stroke="hsla(140, 6%, 15%, 1)" stroke-linecap="round" stroke-linejoin="round" stroke-width="4"/>
      <path id="Path_136" data-name="Path 136" d="M345.507,545.766l.064,6.109" transform="translate(274.207 -183.188)" fill="hsla(140, 6%, 15%, 1)" stroke="hsla(140, 6%, 15%, 1)" stroke-linecap="round" stroke-linejoin="round" stroke-width="4"/>
      <path id="Path_137" data-name="Path 137" d="M315.99,549.534l-.256,5.22" transform="translate(274.207 -183.188)" fill="hsla(140, 6%, 15%, 1)" stroke="hsla(140, 6%, 15%, 1)" stroke-linecap="round" stroke-linejoin="round" stroke-width="4"/>
      <path id="Path_139" data-name="Path 139" d="M318.606,471.566a4.308,4.308,0,0,0-.161-1.959,1.466,1.466,0,0,0-1.578-.908,1.361,1.361,0,0,0-.883.883,2.754,2.754,0,0,0-.08,1.285,2.856,2.856,0,0,0,.364,1.136,1.443,1.443,0,0,0,.941.688,1.255,1.255,0,0,0,1.393-1.1l0-.024" transform="translate(274.207 -183.188)" fill="hsla(140, 6%, 15%, 1)" stroke="hsla(140, 6%, 15%, 1)" stroke-linecap="round" stroke-linejoin="round" stroke-width="4"/>
      <path id="Path_140" data-name="Path 140" d="M344.555,469.642a4.511,4.511,0,0,0-.167-2.038,1.525,1.525,0,0,0-1.641-.943,1.409,1.409,0,0,0-.919.918,2.852,2.852,0,0,0-.08,1.336,3,3,0,0,0,.378,1.182,1.509,1.509,0,0,0,.979.716,1.306,1.306,0,0,0,1.449-1.146l0-.025" transform="translate(274.207 -183.188)" fill="hsla(140, 6%, 15%, 1)" stroke="hsla(140, 6%, 15%, 1)" stroke-linecap="round" stroke-linejoin="round" stroke-width="4"/>
      <path id="Path_194" data-name="Path 194" d="M311.175,459.293a7.68,7.68,0,0,1,5.978-2.285" transform="translate(274.207 -183.188)" fill="hsla(140, 6%, 15%, 1)" stroke="hsla(140, 6%, 15%, 1)" stroke-linecap="round" stroke-linejoin="round" stroke-width="4"/>
      <path id="Path_194-2" data-name="Path 194" d="M339.963,455.361a7.682,7.682,0,0,1,6.381-.485" transform="translate(274.207 -183.188)" fill="hsla(140, 6%, 15%, 1)" stroke="hsla(140, 6%, 15%, 1)" stroke-linecap="round" stroke-linejoin="round" stroke-width="4"/>
    </g>
  </g>
</svg>
