<svg xmlns="http://www.w3.org/2000/svg" xmlns:xlink="http://www.w3.org/1999/xlink" width="320" height="120" viewBox="0 0 320 120">
  <defs>
    <clipPath id="clip-l_16">
      <rect width="320" height="120"/>
    </clipPath>
  </defs>
  <g id="l_16" data-name="l – 16" clip-path="url(#clip-l_16)">
    <path id="Path_5786" data-name="Path 5786" d="M-118.02-.394h4.4V-12.817h4.725V-.394h4.4V-28h-4.4v11.239h-4.725V-28h-4.4ZM-89.992,0c4.324,0,6.567-2.524,6.567-6.941V-28h-4.244V-6.625c0,1.972-.841,2.682-2.242,2.682s-2.242-.71-2.242-2.682V-28h-4.4V-6.941C-96.558-2.524-94.316,0-89.992,0ZM-75.5-.394h6.927c4.4,0,6.687-2.287,6.687-6.546V-9.307c0-2.918-.921-4.969-3.283-5.758v-.079c1.962-.789,2.843-2.563,2.843-5.4v-1.1c0-4.259-1.962-6.349-6.527-6.349H-75.5Zm4.4-16.366v-7.3h2.122c1.562,0,2.242.868,2.242,2.839v1.538c0,2.208-1,2.918-2.643,2.918Zm0,12.423v-8.479h1.962c2,0,2.843.789,2.843,3.352v2.406c0,2.051-.8,2.721-2.282,2.721ZM-54.516-.394H-42.5V-4.338h-7.608v-8.479h6.046v-3.944h-6.046v-7.3H-42.5V-28H-54.516Zm19.179,0h4.4V-12.225h1.522c2,0,2.763.828,2.763,3.392v5.048a8.372,8.372,0,0,0,.4,3.392h4.485a8.017,8.017,0,0,1-.48-3.352V-8.6c0-3.115-.721-5.166-2.923-5.837v-.079c1.962-.789,2.883-2.6,2.883-5.442v-1.7c0-4.259-1.962-6.349-6.527-6.349h-6.527Zm4.4-15.775v-7.887h2c1.562,0,2.242.868,2.242,2.839v2.13c0,2.208-1,2.918-2.643,2.918ZM-14.4-.394h3.844V-21.3l3.283,20.9h3.684L-.3-21.3v20.9H3.863V-28H-2.343L-5.266-7.966-8.189-28H-14.4Zm35.836,0h4.4L21.281-28H15.315L10.75-.394h4.084L15.6-5.8H20.68ZM16.156-9.544l1.962-13.921,2,13.921ZM32.733-.394h3.924V-20.546L42.1-.394h4.445V-28H42.623v16.524L38.178-28H32.733Zm33.114,0H77.5V-4.338H70.251V-28h-4.4Zm28.229,0h4.4L93.915-28H87.949L83.384-.394h4.084l.761-5.4h5.085ZM88.789-9.544l1.962-13.921,2,13.921ZM105.366-.394h6.927c4.4,0,6.687-2.287,6.687-6.546V-9.307c0-2.918-.921-4.969-3.283-5.758v-.079c1.962-.789,2.843-2.563,2.843-5.4v-1.1c0-4.259-1.962-6.349-6.527-6.349h-6.647Zm4.4-16.366v-7.3h2.122c1.562,0,2.242.868,2.242,2.839v1.538c0,2.208-1,2.918-2.643,2.918Zm0,12.423v-8.479h1.962c2,0,2.843.789,2.843,3.352v2.406c0,2.051-.8,2.721-2.282,2.721Z" transform="translate(160.02 74)" fill="hsla(140, 3%, 55%, 1)"/>
    <g id="Rectangle_601" data-name="Rectangle 601" transform="translate(27 35)" fill="none" stroke="#707070" stroke-width="2">
      <rect width="266" height="49" stroke="none"/>
      <rect x="1" y="1" width="264" height="47" fill="none"/>
    </g>
  </g>
</svg>
