<svg xmlns="http://www.w3.org/2000/svg" xmlns:xlink="http://www.w3.org/1999/xlink" width="320" height="120" viewBox="0 0 320 120">
  <defs>
    <clipPath id="clip-l_1">
      <rect width="320" height="120"/>
    </clipPath>
  </defs>
  <g id="l_1" data-name="l – 1" clip-path="url(#clip-l_1)">
    <g id="logo-github" transform="translate(64.147 34.077)">
      <path id="Path_5585" data-name="Path 5585" d="M144.831,115.9h-16.11a.754.754,0,0,0-.752.754v7.873a.754.754,0,0,0,.753.754h6.284v9.784a19.024,19.024,0,0,1-5.309.479c-4.6,0-11.033-1.683-11.033-15.816s6.695-16,12.977-16a25.471,25.471,0,0,1,9.276,1.419.758.758,0,0,0,.9-.737l1.8-7.61a.7.7,0,0,0-.288-.59c-.606-.432-4.3-2.5-13.635-2.5-10.755,0-21.786,4.576-21.786,26.57s12.63,25.273,23.272,25.273c8.813,0,14.157-3.766,14.157-3.766a.647.647,0,0,0,.244-.575V116.646a.754.754,0,0,0-.751-.754Z" transform="translate(-107.907 -93.705)" fill="hsla(140, 3%, 55%, 1)"/>
      <path id="Path_5586" data-name="Path 5586" d="M302.264,97.989a.751.751,0,0,0-.748-.757h-9.069a.754.754,0,0,0-.751.757v17.529H277.558V97.989a.751.751,0,0,0-.748-.757h-9.069a.754.754,0,0,0-.75.757v47.464a.755.755,0,0,0,.75.759h9.069a.754.754,0,0,0,.748-.759v-20.3H291.7l-.025,20.3a.756.756,0,0,0,.751.759h9.091a.754.754,0,0,0,.748-.759Z" transform="translate(-182.32 -95.355)" fill="hsla(140, 3%, 55%, 1)"/>
      <path id="Path_5587" data-name="Path 5587" d="M199.141,105.153a5.874,5.874,0,1,0-1.7,4.167,5.874,5.874,0,0,0,1.7-4.167Z" transform="translate(-145.101 -96.291)" fill="hsla(140, 3%, 55%, 1)"/>
      <path id="Path_5588" data-name="Path 5588" d="M198.925,149.1v-21.91a.754.754,0,0,0-.751-.757h-9.043a.863.863,0,0,0-.786.844v31.39c0,.922.575,1.2,1.318,1.2h8.147c.894,0,1.113-.442,1.113-1.211Z" transform="translate(-145.534 -109.015)" fill="hsla(140, 3%, 55%, 1)"/>
      <path id="Path_5589" data-name="Path 5589" d="M371.647,126.569h-9a.755.755,0,0,0-.748.759V150.6a10.175,10.175,0,0,1-5.535,1.672c-3.244,0-4.107-1.475-4.107-4.65V127.329a.754.754,0,0,0-.748-.759h-9.135a.756.756,0,0,0-.75.759v21.832c0,9.438,5.26,11.749,12.5,11.749a21.1,21.1,0,0,0,10.724-3.28,19.135,19.135,0,0,0,.331,1.933.8.8,0,0,0,.664.411l5.812-.026a.756.756,0,0,0,.75-.758V127.329a.755.755,0,0,0-.753-.76Z" transform="translate(-217.231 -109.079)" fill="hsla(140, 3%, 55%, 1)"/>
      <path id="Path_5590" data-name="Path 5590" d="M427.395,111.78a16.921,16.921,0,0,0-8.589,2.281V97.987a.753.753,0,0,0-.748-.757h-9.1a.752.752,0,0,0-.75.757v47.464a.755.755,0,0,0,.751.759h6.311a.753.753,0,0,0,.658-.4,14.843,14.843,0,0,0,.383-2.188s3.719,3.524,10.761,3.524c8.266,0,13.007-4.192,13.007-18.823S432.51,111.78,427.395,111.78Zm-3.547,26.743a10.8,10.8,0,0,1-5.24-1.512V121.982a11.993,11.993,0,0,1,4.653-1.51c3.244-.288,6.365.689,6.365,8.422,0,8.153-1.413,9.762-5.781,9.63Z" transform="translate(-248.378 -95.355)" fill="hsla(140, 3%, 55%, 1)"/>
      <path id="Path_5591" data-name="Path 5591" d="M237.241,118.079h-6.808l-.01-8.988c0-.341-.175-.511-.569-.511h-9.27c-.361,0-.554.159-.554.505v9.29s-4.645,1.122-4.961,1.212a.754.754,0,0,0-.543.723v5.837a.754.754,0,0,0,.75.758h4.754v14.042c0,10.431,7.317,11.455,12.253,11.455a20.706,20.706,0,0,0,5.4-.888.7.7,0,0,0,.425-.681l.007-6.422a.767.767,0,0,0-.751-.757c-.4,0-1.411.161-2.455.161-3.342,0-4.474-1.554-4.474-3.566V126.9h6.806a.754.754,0,0,0,.751-.758v-7.311a.752.752,0,0,0-.751-.759Z" transform="translate(-157.779 -100.664)" fill="hsla(140, 3%, 55%, 1)"/>
    </g>
  </g>
</svg>
