<svg xmlns="http://www.w3.org/2000/svg" xmlns:xlink="http://www.w3.org/1999/xlink" width="320" height="120" viewBox="0 0 320 120">
  <defs>
    <clipPath id="clip-l_10">
      <rect width="320" height="120"/>
    </clipPath>
  </defs>
  <g id="l_10" data-name="l – 10" clip-path="url(#clip-l_10)">
    <g id="logo-bootstrap" transform="translate(17.349 5.445)">
      <path id="bootstrap-logo-black" d="M14.865,0A7.131,7.131,0,0,0,7.9,7.453,40.091,40.091,0,0,1,6.642,19.936C5.423,23.882,3.364,26.377,0,26.7v3.635c3.364.32,5.423,2.815,6.642,6.761A40.087,40.087,0,0,1,7.9,49.576a7.131,7.131,0,0,0,6.969,7.453H56.707a7.131,7.131,0,0,0,6.965-7.453,40.09,40.09,0,0,1,1.253-12.483c1.219-3.946,3.273-6.441,6.636-6.761V26.7c-3.364-.32-5.419-2.815-6.636-6.761A40.091,40.091,0,0,1,63.672,7.453,7.131,7.131,0,0,0,56.707,0ZM47.93,35.1c0,5.339-3.983,8.576-10.592,8.576H25.146a.28.28,0,0,1-.28-.28V13.622a.28.28,0,0,1,.28-.28H37.27c5.513,0,9.131,2.985,9.131,7.567a6.777,6.777,0,0,1-5.534,6.6v.168C45.087,28.141,47.93,31.062,47.93,35.1ZM36.107,17.189H29.69v9.059H35.1c4.177,0,6.481-1.682,6.481-4.688,0-2.817-1.982-4.373-5.475-4.373ZM29.69,29.844v9.984h6.654c4.35,0,6.654-1.745,6.654-5.024s-2.368-4.96-6.934-4.96Z" transform="translate(27.5 26.041)" fill="hsla(140, 3%, 55%, 1)"/>
      <path id="Path_5691" data-name="Path 5691" d="M2.34,3.879h9.747c5.177,0,8.319-2.5,8.319-6.819a5.923,5.923,0,0,0-4.891-5.927,5.221,5.221,0,0,0,3.57-5.07c0-3.963-3.213-6.462-8.212-6.462H2.34ZM10.8-17.758c3.035,0,4.891,1.535,4.891,4,0,2.321-1.821,3.892-4.963,3.892H5.625v-7.891Zm.714,10.533c3.428,0,5.534,1.642,5.534,4.213s-1.928,4.249-5.034,4.249H5.625V-7.225ZM31.082,4.307c5.32,0,8.676-3.5,8.676-9.89,0-6.177-3.249-9.961-8.676-9.961-5.32,0-8.676,3.535-8.676,9.961C22.406.594,25.655,4.307,31.082,4.307Zm0-2.713c-3.5,0-5.463-2.606-5.463-7.176,0-4.677,1.928-7.248,5.463-7.248,3.5,0,5.463,2.642,5.463,7.248C36.544-.941,34.616,1.594,31.082,1.594ZM50.433,4.307c5.32,0,8.676-3.5,8.676-9.89,0-6.177-3.249-9.961-8.676-9.961-5.32,0-8.676,3.535-8.676,9.961C41.757.594,45.006,4.307,50.433,4.307Zm0-2.713c-3.5,0-5.463-2.606-5.463-7.176,0-4.677,1.928-7.248,5.463-7.248,3.5,0,5.463,2.642,5.463,7.248C55.9-.941,53.968,1.594,50.433,1.594ZM62.5-1.584c0,4,1.678,5.891,5.213,5.891a5.463,5.463,0,0,0,2.035-.286V1.772h-.643c-2.785,0-3.463-1.071-3.463-3.356v-11H69.82v-2.5H65.643v-4.356H62.5v4.356H59.859v2.5H62.5Zm11.568-8.64c0-1.571,1.357-2.749,3.713-2.749,2.678,0,4.32,1.107,4.784,4.07h3.142c-.607-4.713-3.642-6.641-7.748-6.641-4.641,0-6.891,2.642-6.891,5.534,0,7.855,12.175,3.57,12.175,8.747,0,1.785-1.5,3.071-4.356,3.071C75.961,1.808,74,.344,73.569-2.3H70.427c.714,4.463,3.856,6.605,8.355,6.605,4.463,0,7.6-2.249,7.6-5.784C86.387-9.3,74.069-4.94,74.069-10.224Zm15.424,8.64c0,4,1.678,5.891,5.213,5.891a5.464,5.464,0,0,0,2.035-.286V1.772H96.1c-2.785,0-3.463-1.071-3.463-3.356v-11h4.177v-2.5H92.635v-4.356H89.493v4.356H86.851v2.5h2.642ZM98.74,3.879h3.142v-10.6c0-3.428,1.642-5.784,5.427-5.784a6.4,6.4,0,0,1,1.964.25V-15.08a3.047,3.047,0,0,0-1.785-.464,6.178,6.178,0,0,0-5.605,3.392V-15.08H98.74ZM113.522-8.9a4.237,4.237,0,0,1,1.465-2.918,4.237,4.237,0,0,1,3.1-1.01c3.249,0,4.677,1.678,4.677,4.749v.428a27.769,27.769,0,0,0-8.819,1.107,5.475,5.475,0,0,0-4.213,5.427c0,3.606,2.642,5.427,6.57,5.427A7.774,7.774,0,0,0,122.769.879a8.093,8.093,0,0,0,.5,3h3.32a10.56,10.56,0,0,1-.678-4.57V-8.154c0-4.427-2.464-7.391-7.534-7.391-4.641,0-7.391,2.464-8,6.641Zm-.571,7.712c0-2.321,1.749-4.035,9.819-4.106V-4.4a6.043,6.043,0,0,1-1.82,4.279,6.043,6.043,0,0,1-4.321,1.719c-2.214,0-3.677-1.035-3.677-2.785Zm20.208,12.925V1.629a6.253,6.253,0,0,0,5.32,2.678c4.963,0,8.069-3.535,8.069-9.961,0-6.177-3.035-9.89-8.069-9.89a6.292,6.292,0,0,0-5.32,2.821V-15.08h-3.142V11.733Zm5.106-24.564c3.213,0,5.07,2.606,5.07,7.176,0,4.677-1.785,7.248-5.07,7.248-3.249,0-5.106-2.642-5.106-7.248C133.159-10.3,134.944-12.831,138.264-12.831Z" transform="translate(111.254 63.054)" fill="hsla(140, 3%, 55%, 1)"/>
    </g>
  </g>
</svg>
