<svg xmlns="http://www.w3.org/2000/svg" xmlns:xlink="http://www.w3.org/1999/xlink" width="320" height="120" viewBox="0 0 320 120">
  <defs>
    <clipPath id="clip-l_5">
      <rect width="320" height="120"/>
    </clipPath>
  </defs>
  <g id="l_5" data-name="l – 5" clip-path="url(#clip-l_5)">
    <path id="logo-mclaren" d="M213.3,16.76c36.982-23.938,86.7-24.705,28.7,13.964l.921-1.227c16.42-22.557-17.034-17.5-28.849-13.043ZM77.954,33.792H93.606V39.93H75.5c-7.673,0-11.048-2.3-11.048-8.44V30.11c0-5.218,3.069-8.594,10.742-8.594H93.606v6.139H77.954a2.762,2.762,0,0,0-2.759,2.762v.767a2.762,2.762,0,0,0,2.762,2.608Zm29.463-15.343V33.792h9.207V39.93H95.14V18.447ZM49.258,21.209a12.427,12.427,0,0,1,7.519-2.762h6.139V39.93H50.639V29.189L38.824,39.93h-11.2V29.189L13.964,39.93H0L24.4,21.516c2.3-1.688,3.836-3.069,7.826-3.069H39.9V29.189Zm104.194,2.3a3.529,3.529,0,0,1,3.836-3.529H171.87v6.14H164.2V39.93H153.456Zm71.969-3.529c9.207,0,12.427,1.995,12.427,8.749v11.2H227.106V32.258a4.6,4.6,0,0,0-4.6-4.6h-4.6V39.93H207.16V19.982Zm-83.785,0c7.059,0,10.281,2.916,10.281,7.826v4.6c0,5.678-3.222,7.519-11.048,7.519H128.747c-4.45,0-7.673-.46-9.361-1.995a5.525,5.525,0,0,1-1.227-3.529V33.64c0-3.069,1.841-5.985,7.673-5.985h13.81c0-1.381.153-1.534-1.534-1.534H119.693V19.982Zm-1.995,13.043v-.767H131.2a.767.767,0,1,0,0,1.534h7.673A.767.767,0,0,0,139.642,33.025Zm56.164-13.043c8.133,0,9.821,2.455,9.821,5.833v.767c0,3.677-2.917,5.678-7.673,5.678H184.143c0,1.381,1.381,1.534,3.069,1.534h16.88V39.93H183.068c-6.594,0-9.668-2.762-9.668-7.826V28.575c0-5.833,3.222-8.594,10.588-8.594Zm-1.688,7.673a.767.767,0,1,0,0-1.534h-9.207a.767.767,0,0,0-.767.767v.767Z" transform="translate(25.723 40.034)" fill="hsla(140, 3%, 55%, 1)"/>
  </g>
</svg>
