<svg xmlns="http://www.w3.org/2000/svg" xmlns:xlink="http://www.w3.org/1999/xlink" width="320" height="120" viewBox="0 0 320 120">
  <defs>
    <clipPath id="clip-l_11">
      <rect width="320" height="120"/>
    </clipPath>
  </defs>
  <g id="l_11" data-name="l – 11" clip-path="url(#clip-l_11)">
    <g id="bosch" transform="translate(-26.815 27.506)">
      <g id="logotype" transform="translate(83.372 8.542)">
        <path id="logotype-b-47" d="M173.648,38.244a9.871,9.871,0,0,0,6.309-9.319c0-8.387-5.95-12.54-14.122-12.54H144.4v45.6h23.3c7.169,0,14.194-5.019,14.194-12.688A11.263,11.263,0,0,0,173.648,38.244Zm-18.065-12.4H163.9a4.058,4.058,0,0,1,4.3,3.807v.5a4.251,4.251,0,0,1-4.31,4.164h-8.387Zm8.387,26.6h-8.319V43.471h8.1c4.086,0,6.022,1.792,6.022,4.445,0,3.318-2.434,4.522-5.8,4.522Z" transform="translate(-144.4 -15.147)" fill="hsla(140, 3%, 55%, 1)" fill-rule="evenodd"/>
        <path id="logotype-o-47" d="M222.832,14.78c-13.191,0-20.932,10.537-20.932,23.871s7.743,23.871,20.932,23.871,20.932-10.467,20.932-23.871S236.094,14.78,222.832,14.78Zm0,36.847c-6.456,0-9.677-5.807-9.677-12.975s3.228-12.9,9.677-12.9,9.749,5.807,9.749,12.9C232.581,45.892,229.283,51.627,222.832,51.627Z" transform="translate(-160.68 -14.695)" fill="hsla(140, 3%, 55%, 1)" fill-rule="evenodd"/>
        <path id="logotype-s-47" d="M285.394,33.828l-1.577-.359c-3.871-.788-6.953-1.792-6.953-4.594,0-3.011,2.939-4.229,5.52-4.229a12.8,12.8,0,0,1,9.319,4.229l7.1-7.025a21.259,21.259,0,0,0-16.631-7.169c-9.606,0-16.918,5.376-16.918,14.337,0,8.172,5.878,12.186,13.047,13.692l1.577.359c5.95,1.219,8.172,2.15,8.172,5.019,0,2.724-2.437,4.516-6.165,4.516a14.3,14.3,0,0,1-11.547-5.878L263.1,53.895c4.014,4.8,9.1,8.531,18.924,8.531,8.531,0,17.631-4.875,17.631-14.838C299.8,37.191,291.918,35.185,285.394,33.828Z" transform="translate(-178.009 -14.67)" fill="hsla(140, 3%, 55%, 1)" fill-rule="evenodd"/>
        <path id="logotype-c-47" d="M341.149,51.656c-5.019,0-10.251-4.158-10.251-13.262,0-8.1,4.875-12.617,9.964-12.617,4.014,0,6.381,1.862,8.244,5.091l9.175-6.094c-4.594-6.953-10.036-9.893-17.564-9.893-13.763,0-21.219,10.678-21.219,23.59,0,13.548,8.244,24.158,21.076,24.158,9.033,0,13.334-3.154,17.993-9.893l-9.247-6.223C347.457,49.5,345.45,51.656,341.149,51.656Z" transform="translate(-193.978 -14.724)" fill="hsla(140, 3%, 55%, 1)" fill-rule="evenodd"/>
        <path id="logotype-h-47" d="M406.107,16.38V33.154H392.271V16.38H380.3V61.972h11.971V43.98h13.835V61.972h11.971V16.38Z" transform="translate(-211.193 -15.148)" fill="hsla(140, 3%, 55%, 1)" fill-rule="evenodd"/>
      </g>
    </g>
  </g>
</svg>
