<svg xmlns="http://www.w3.org/2000/svg" xmlns:xlink="http://www.w3.org/1999/xlink" width="320" height="120" viewBox="0 0 320 120">
  <defs>
    <clipPath id="clip-l_3">
      <rect width="320" height="120"/>
    </clipPath>
  </defs>
  <g id="l_3" data-name="l – 3" clip-path="url(#clip-l_3)">
    <path id="logo-ibm" d="M20.824,14.33v4.145H50.317V14.33Zm33.674,0v4.145H96.532a16,16,0,0,0-9.98-4.146Zm50.278,0v4.145H130.2l-1.515-4.146Zm43.66,0-1.508,4.146h25.2V14.33ZM20.824,22.394v4.144H50.317V22.391Zm33.674,0v4.144h46.907s-.547-3.191-1.5-4.139Zm50.278,0v4.144h28.236l-1.4-4.139Zm40.641,0-1.4,4.144h28.1V22.4ZM29.3,30.459v4.154H42.074V30.461Zm33.674,0v4.154H75.749V30.461Zm25.2,0v4.154h12.774a14.111,14.111,0,0,0,.812-4.152Zm25.08,0v4.154h22.628l-1.508-4.152Zm29.383,0-1.515,4.152h22.759V30.459ZM29.3,38.53v4.146H42.077V38.53Zm33.674,0v4.146H95.6a14,14,0,0,0,3.6-4.146Zm50.278,0v4.146h12.768v-2.3l.812,2.3h23.4l.871-2.3v2.3h12.774V38.53H139.906l-1.273,3.516-1.277-3.516ZM29.3,46.595v4.146H42.074V46.595Zm33.674,0v4.146H99.2a14.11,14.11,0,0,0-3.6-4.146Zm50.278,0v4.146h12.77V46.595Zm15.095,0,1.547,4.146H147.44l1.469-4.146Zm22.759,0v4.146h12.774V46.595ZM29.3,54.664V58.81H42.078V54.664Zm33.674,0V58.81H75.752V54.664Zm25.2,0V58.81h13.584a14.064,14.064,0,0,0-.812-4.146Zm25.08,0V58.81h12.774V54.664Zm17.995,0,1.5,4.146H144.51l1.508-4.146Zm19.858,0V58.81h12.774V54.664ZM21.06,62.724v4.152H50.554V62.724Zm33.444,0v4.152h45.4c.955-.952,1.5-4.152,1.5-4.152Zm50.507,0v4.152h21.012V62.724Zm29.146,0,1.54,4.152h5.986l1.445-4.152Zm16.953,0v4.152h21.25V62.724ZM21.06,70.8v4.146H50.554V70.8Zm33.444,0v4.139H86.555a16.017,16.017,0,0,0,9.98-4.139Zm50.507,0v4.146h21.012V70.8Zm32.066,0,1.479,4.136h.256l1.5-4.139Zm14.035,0v4.146h21.25V70.8Z" transform="translate(63.407 15.365)" fill="hsla(140, 3%, 55%, 1)"/>
  </g>
</svg>
