<svg xmlns="http://www.w3.org/2000/svg" xmlns:xlink="http://www.w3.org/1999/xlink" width="320" height="120" viewBox="0 0 320 120">
  <defs>
    <clipPath id="clip-l_2">
      <rect width="320" height="120"/>
    </clipPath>
  </defs>
  <g id="l_2" data-name="l – 2" clip-path="url(#clip-l_2)">
    <g id="logo-hashicorp" transform="translate(34.202 30.601)">
      <path id="Path_5592" data-name="Path 5592" d="M129.593,54.445V40.925H117.7v13.52H111.64V22.38H117.7V35.574h11.9V22.38h6.058V54.445Z" transform="translate(-44.023 -8.825)" fill="hsla(140, 3%, 55%, 1)"/>
      <path id="Path_5593" data-name="Path 5593" d="M176,59.735h-4.809l-.436-1.587a12.823,12.823,0,0,1-6.983,2.071c-4.288,0-6.117-2.935-6.117-6.983,0-4.766,2.071-6.6,6.832-6.6h5.633V44.183c0-2.6-.721-3.513-4.477-3.513a32.791,32.791,0,0,0-6.5.7l-.721-4.477a30.593,30.593,0,0,1,8.043-1.109c7.365,0,9.534,2.6,9.534,8.481Zm-5.87-8.861h-4.332c-1.929,0-2.452.527-2.452,2.314,0,1.635.527,2.362,2.362,2.362a9.243,9.243,0,0,0,4.427-1.211Z" transform="translate(-62.165 -14.11)" fill="hsla(140, 3%, 55%, 1)"/>
      <path id="Path_5594" data-name="Path 5594" d="M201.443,60.225a27.637,27.637,0,0,1-8.091-1.351l.818-4.477a26.249,26.249,0,0,0,6.983,1.012c2.6,0,2.986-.606,2.986-2.362,0-1.442-.291-2.169-4.1-3.083-5.73-1.4-6.4-2.842-6.4-7.366,0-4.718,2.071-6.793,8.765-6.793a30.889,30.889,0,0,1,7.031.818l-.605,4.67a41.284,41.284,0,0,0-6.451-.671c-2.55,0-2.986.605-2.986,2.023,0,1.878.145,2.023,3.325,2.84,6.565,1.739,7.2,2.6,7.2,7.4C209.914,57.431,208.516,60.225,201.443,60.225Z" transform="translate(-76.243 -14.12)" fill="hsla(140, 3%, 55%, 1)"/>
      <path id="Path_5595" data-name="Path 5595" d="M240.531,53.288V36.934c0-1.254-.527-1.878-1.878-1.878a16.22,16.22,0,0,0-6.117,1.974V53.288H226.66V20.258l5.87-.818V31.62a20.7,20.7,0,0,1,8.57-2.264c3.9,0,5.293,2.743,5.293,6.935v17Z" transform="translate(-89.378 -7.666)" fill="hsla(140, 3%, 55%, 1)"/>
      <path id="Path_5596" data-name="Path 5596" d="M266.41,26.709V19.916h5.878v6.793Zm0,26.771V30.027h5.878V53.479Z" transform="translate(-105.053 -7.855)" fill="hsla(140, 3%, 55%, 1)"/>
      <path id="Path_5597" data-name="Path 5597" d="M282.87,30.88c0-5.871,3.416-9.29,11.411-9.29A36.314,36.314,0,0,1,303,22.65l-.671,5.243a47.292,47.292,0,0,0-7.874-.818c-4.193,0-5.535,1.448-5.535,4.845V44.248c0,3.416,1.351,4.845,5.535,4.845a47.292,47.292,0,0,0,7.874-.818L303,53.527a36.3,36.3,0,0,1-8.717,1.06c-7.995,0-11.411-3.416-11.411-9.29Z" transform="translate(-111.544 -8.513)" fill="hsla(140, 3%, 55%, 1)"/>
      <path id="Path_5598" data-name="Path 5598" d="M329.356,60.228c-8.043,0-10.206-4.427-10.206-9.243V45.063c0-4.815,2.169-9.243,10.206-9.243s10.206,4.427,10.206,9.243v5.92C339.543,55.8,337.38,60.228,329.356,60.228Zm0-19.382c-3.132,0-4.33,1.4-4.33,4.046v6.29c0,2.647,1.211,4.046,4.33,4.046s4.33-1.4,4.33-4.046V44.867c-.012-2.647-1.217-4.046-4.33-4.046Z" transform="translate(-125.849 -14.125)" fill="hsla(140, 3%, 55%, 1)"/>
      <path id="Path_5599" data-name="Path 5599" d="M370.71,41.207a45.98,45.98,0,0,0-6.214,3.416V59.764H358.62V36.294h4.961l.387,2.6a26.268,26.268,0,0,1,6.166-3.083Z" transform="translate(-141.414 -14.121)" fill="hsla(140, 3%, 55%, 1)"/>
      <path id="Path_5600" data-name="Path 5600" d="M402.406,51.949c0,5.2-2.314,8.279-7.752,8.279a32.4,32.4,0,0,1-6.262-.678V69.24l-5.871.818V36.3h4.67l.612,1.972a12.343,12.343,0,0,1,7.413-2.452c4.718,0,7.22,2.792,7.22,8.14ZM388.4,54.6a26.046,26.046,0,0,0,5.2.605c2.12,0,2.935-1.012,2.935-3.131V43.807c0-1.929-.721-2.986-2.89-2.986a8.309,8.309,0,0,0-5.252,2.12Z" transform="translate(-150.839 -14.125)" fill="hsla(140, 3%, 55%, 1)"/>
      <path id="Path_5601" data-name="Path 5601" d="M23.147,0,0,13.355V45.426l8.7,5.021V18.376l14.45-8.347Z" fill="hsla(140, 3%, 55%, 1)"/>
      <path id="Path_5602" data-name="Path 5602" d="M41.794,0V25.542H32.557V16.008l-8.7,5.02V53.757l8.7,5.032V33.318h9.237v9.467l8.7-5.015V5.021Z" transform="translate(-9.409)" fill="hsla(140, 3%, 55%, 1)"/>
      <path id="Path_5603" data-name="Path 5603" d="M53.47,64.237,76.617,50.882V18.811l-8.7-5.021V45.861L53.47,54.207Z" transform="translate(-21.084 -5.438)" fill="hsla(140, 3%, 55%, 1)"/>
    </g>
  </g>
</svg>
