<svg xmlns="http://www.w3.org/2000/svg" xmlns:xlink="http://www.w3.org/1999/xlink" width="320" height="120" viewBox="0 0 320 120">
  <defs>
    <clipPath id="clip-l_6">
      <rect width="320" height="120"/>
    </clipPath>
  </defs>
  <g id="l_6" data-name="l – 6" clip-path="url(#clip-l_6)">
    <path id="logo-nytimes" d="M22.157,4.414C22.157,1.2,19.108.4,16.7.4V.881c1.445,0,2.569.481,2.569,1.605a1.7,1.7,0,0,1-1.927,1.605,20.807,20.807,0,0,1-5.3-1.285A17.067,17.067,0,0,0,6.423,1.364,5.251,5.251,0,0,0,.964,6.5a3.722,3.722,0,0,0,2.409,3.534l.162-.324a1.923,1.923,0,0,1-.8-1.605A2.039,2.039,0,0,1,4.978,6.34a23.725,23.725,0,0,1,5.942,1.446,45.375,45.375,0,0,0,5.942,1.285v4.978l-2.409,2.088v.16l2.4,2.087v6.905a7.415,7.415,0,0,1-4.014.964,7.915,7.915,0,0,1-6.262-2.569l6.583-3.212V9.392L5.138,12.925a8.2,8.2,0,0,1,4.174-4.5l-.16-.481C4.335,9.235,0,13.721,0,19.187a11.271,11.271,0,0,0,11.24,11.24,10.445,10.445,0,0,0,10.6-10.437h-.321a10.753,10.753,0,0,1-4.174,4.978V18.384L19.916,16.3v-.16l-2.569-2.088V9.071a4.589,4.589,0,0,0,4.809-4.657ZM8.188,22.077l-1.927.964a9.526,9.526,0,0,1-1.767-6.1,11.472,11.472,0,0,1,.321-3.372l3.374-1.445Zm17.02,3.693-2.087,1.605.321.321.964-.8L27.94,30.1l4.819-3.211-.16-.321-1.285.8-1.605-1.605V14.851l1.285-.964,2.729,2.248v9.8c0,6.1-1.285,7.068-4.014,8.028v.481c4.5.16,8.671-1.285,8.671-9.152v-10.6l1.445-1.124L39.5,13.24l-1.285.964L34.2,10.837l-4.5,3.372V1.043h-.321L23.765,4.9v.321A2.263,2.263,0,0,1,25.37,7.626L25.21,25.77ZM54.592,24,50.58,27.055l-4.014-3.212V21.916l7.547-5.138v-.16l-3.854-5.781-8.35,4.5v10.6L40.3,27.22l.321.321,1.445-1.124,5.459,4.014,7.226-5.781-.16-.643Zm-8.028-2.729V13.406l.321-.16,3.534,5.619-3.854,2.409Zm38.7-18.3a4.688,4.688,0,0,0-.321-1.445h-.321a2.508,2.508,0,0,1-2.729,1.927,4.246,4.246,0,0,1-3.052-1.446l-4.657,5.3.321.321,1.605-1.445a5.857,5.857,0,0,0,4.014,1.605V21.109L70.651,4.9c-.8-1.285-1.927-3.05-4.174-3.05-2.569,0-4.817,2.248-4.5,5.781h.481c.16-.964.643-2.088,1.767-2.088.8,0,1.605.8,2.088,1.605v5.3c-2.89,0-4.817,1.285-4.817,3.693a3.67,3.67,0,0,0,2.569,3.693v-.321a1.457,1.457,0,0,1-.481-1.124c0-.8.643-1.445,1.767-1.445h.8v6.743c-3.372,0-6.1,1.927-6.1,5.138,0,3.05,2.569,4.5,5.459,4.335v-.321c-1.767-.16-2.569-.964-2.569-2.088a1.985,1.985,0,0,1,2.248-2.088,4.362,4.362,0,0,1,3.212,1.767l4.657-5.138-.321-.321-1.124,1.285A7.711,7.711,0,0,0,66.8,23.847V7.786l12.845,22.48h.961V7.786a4.913,4.913,0,0,0,4.656-4.817ZM96.983,24l-4.007,3.05-4.014-3.212V21.916l7.547-5.138v-.16l-3.86-5.781-8.35,4.5v10.6L82.693,27.22l.321.321,1.445-1.124,5.459,4.014,7.226-5.781-.16-.643Zm-8.028-2.729V13.406l.321-.16,3.534,5.619-3.854,2.409Zm34.2-8.671-1.124.8-3.05-2.569-3.534,3.212,1.456,1.438V27.53l-3.854-2.409V15.173l1.285-.8-3.693-3.534L107.1,14.047l1.441,1.441V27.049l-.481.321-3.372-2.409V15.333c0-2.248-1.124-2.89-2.409-3.693-1.124-.8-1.767-1.285-1.767-2.409,0-.964.964-1.445,1.445-1.767V7.143c-1.285,0-4.657,1.285-4.657,4.335a3.84,3.84,0,0,0,1.608,3.058,3.78,3.78,0,0,1,1.605,2.89v9.313l-1.767,1.285.321.321,1.605-1.285,3.693,3.212,4.014-2.729,4.5,2.729,8.507-4.983V14.537l2.088-1.605Zm29.867-8.835-1.605,1.445L147.88,2l-5.3,3.854V2.321H142.1l.16,26.012a17.348,17.348,0,0,1-3.05-.643l-.321-21.677a3.82,3.82,0,0,0-4.009-3.845,4.669,4.669,0,0,0-4.817,4.5h.481c.16-.964.643-1.767,1.605-1.767s1.767.643,1.767,2.729v6.262c-2.89.16-4.657,1.767-4.657,3.854,0,1.285.643,3.212,2.569,3.212v-.321a1.272,1.272,0,0,1-.8-1.124c0-.964.8-1.285,2.088-1.285h.644V28.18a4.518,4.518,0,0,0-3.372,4.5c0,2.729,2.088,4.657,5.3,4.657a24.376,24.376,0,0,0,6.1-.8,35.508,35.508,0,0,1,4.657-.8c1.285,0,1.767.643,1.767,1.445,0,1.124-.481,1.605-1.124,1.767v.321c2.569-.481,4.174-2.088,4.174-4.5s-2.409-3.854-4.978-3.854a51.258,51.258,0,0,0-5.941.8,37.314,37.314,0,0,1-5.138.8c-1.124,0-2.409-.481-2.409-2.088,0-1.285,1.124-2.409,3.854-2.409a19.249,19.249,0,0,1,4.978.643,23.22,23.22,0,0,0,5.3.964c2.409,0,4.5-.8,4.5-4.174V5.7L153.351,4.1l-.321-.321Zm-6.583,9.8a2.8,2.8,0,0,1-1.927.964,2.5,2.5,0,0,1-1.927-.964V6.5l1.605-1.124,2.252,2.1v6.1Zm0,4.817a2.719,2.719,0,0,0-3.854,0V14.209a2.719,2.719,0,0,0,3.854,0Zm0,7.547a2.437,2.437,0,0,1-2.569,2.569h-1.276V19.022a3.068,3.068,0,0,1,1.927-.8,3.525,3.525,0,0,1,1.927.8v6.9Zm22-11.391L163.3,10.844l-7.868,4.5V25.777l-1.605,1.285.16.321,1.285-.964,5.138,3.854,8.028-4.817V14.537Zm-8.671,10.116V13.085l4.014,2.89v11.4l-4.014-2.729ZM183.69,11.164h-.321a2.886,2.886,0,0,1-1.445.643,2.3,2.3,0,0,1-1.767-.8h-.322l-2.729,3.05L174.378,11l-4.817,3.212.16.321,1.285-.8,1.605,1.767V25.615l-2.088,1.605.321.321.964-.8,3.854,3.212,4.978-3.372-.16-.321-1.445.8-1.927-1.605V14.209A4.407,4.407,0,0,0,180,15.814c2.248.16,3.534-2.088,3.693-4.657Zm19.268,15.414-5.452,3.688-7.392-11.244,5.3-8.188h.324a4,4,0,0,0,2.719,1.287,3.008,3.008,0,0,0,2.409-1.285h.321c-.16,3.212-2.409,5.138-4.014,5.138A6.472,6.472,0,0,1,193.8,14.69l-.481.8,8.028,11.882,1.605-.964Zm-17.663-.8-2.088,1.605.321.321.964-.8,3.534,3.212,4.817-3.212-.321-.321-1.285.8-1.605-1.605V1.043h-.16L183.692,4.9v.321A2.133,2.133,0,0,1,185.3,7.626V25.77ZM229.609,4.419C229.614,1.2,226.563.4,224.149.4V.881c1.445,0,2.569.481,2.569,1.605a1.7,1.7,0,0,1-1.927,1.605,20.807,20.807,0,0,1-5.3-1.285,21.317,21.317,0,0,0-5.619-1.285,5.251,5.251,0,0,0-5.459,5.138,3.722,3.722,0,0,0,2.409,3.534l.16-.321a1.692,1.692,0,0,1-.964-1.605A2.039,2.039,0,0,1,212.264,6.5a23.725,23.725,0,0,1,5.941,1.445,45.373,45.373,0,0,0,5.943,1.289v4.978L221.74,16.3v.16l2.409,2.088v6.9a7.415,7.415,0,0,1-4.014.964,7.915,7.915,0,0,1-6.262-2.569l6.583-3.212V9.392l-8.028,3.534A10.739,10.739,0,0,1,216.6,8.269l-.16-.321c-4.817,1.285-9.152,5.619-9.152,11.08a11.271,11.271,0,0,0,11.24,11.24,10.445,10.445,0,0,0,10.6-10.437h-.321a10.754,10.754,0,0,1-4.174,4.978V18.223l2.569-2.088v-.16L224.8,13.887V9.071a4.589,4.589,0,0,0,4.817-4.657ZM215.645,22.077l-1.927.964a9.526,9.526,0,0,1-1.767-6.1,11.418,11.418,0,0,1,.481-3.372l3.372-1.445ZM235.234,2.809h-.16l-3.211,2.729V5.7l2.729,3.05h.321l3.212-2.729V5.859l-2.89-3.05Zm4.819,23.765-1.285.8-1.605-1.605V14.69l1.605-1.124-.321-.321-1.124.964-2.89-3.372-4.657,3.212.321.481,1.124-.8,1.445,1.767V25.93l-2.088,1.605.16.321,1.124-.8,3.534,3.212,4.817-3.212-.16-.481Zm26.815-.16-1.124.8-1.767-1.605V14.69l1.605-1.285-.321-.321-1.285,1.124-3.693-3.372-4.817,3.372-3.693-3.372-4.5,3.372-2.89-3.372-4.657,3.212.16.481,1.124-.8,1.605,1.767V25.93l-1.285,1.285,3.693,3.05,3.534-3.212-1.441-1.444V14.69l1.445-.964,2.409,2.248V25.61l-1.285,1.285,3.693,3.05,3.534-3.212-1.445-1.445v-10.6l1.285-.8,2.569,2.248v9.635L258.2,26.889l3.693,3.372,4.978-3.372v-.481ZM280.831,24l-4.014,3.05-4.006-3.212V21.916l7.547-5.138v-.16L276.5,10.837l-8.35,4.5V26.253l5.619,4.014L281,24.485,280.84,24Zm-8.02-2.731V13.406l.321-.16,3.534,5.619Zm22.641-1.445L292.4,17.42a7.98,7.98,0,0,0,2.89-5.781v-.962h-.324a2.311,2.311,0,0,1-2.248,1.605,3.587,3.587,0,0,1-2.89-1.605L282.6,14.69v5.781l2.729,2.088c-2.729,2.409-3.212,4.014-3.212,5.3a3.205,3.205,0,0,0,2.088,3.212l.16-.321a1.435,1.435,0,0,1-.642-1.285c0-.481.642-1.285,1.928-1.285a4.242,4.242,0,0,1,3.05,1.605l6.9-4.174V19.828h-.16Zm-1.767-4.817a17.6,17.6,0,0,1-4.978,4.817l-1.767-1.445V12.77a4.758,4.758,0,0,0,4.174,2.89,4.377,4.377,0,0,0,2.566-.647Zm-2.729,12.845a5.327,5.327,0,0,0-4.657-3.05,5.6,5.6,0,0,0-3.05.8,17.917,17.917,0,0,1,5.619-5.138l1.927,1.605.16,5.781Z" transform="translate(12.198 40.17)" fill="hsla(140, 3%, 55%, 1)"/>
  </g>
</svg>
