<svg xmlns="http://www.w3.org/2000/svg" xmlns:xlink="http://www.w3.org/1999/xlink" width="320" height="120" viewBox="0 0 320 120">
  <defs>
    <clipPath id="clip-path">
      <rect id="Rectangle_602" data-name="Rectangle 602" width="55.35" height="77.967" fill="hsla(140, 3%, 55%, 1)"/>
    </clipPath>
    <clipPath id="clip-l_17">
      <rect width="320" height="120"/>
    </clipPath>
  </defs>
  <g id="l_17" data-name="l – 17" clip-path="url(#clip-l_17)">
    <g id="Group_1145" data-name="Group 1145" transform="translate(24 24.461)">
      <g id="Group_1144" data-name="Group 1144" clip-path="url(#clip-path)">
        <path id="Path_5787" data-name="Path 5787" d="M0,0V58.4C0,73.7,23.947,70.9,27.546,77.967,31.6,70.927,55.35,73.7,55.35,58.4V0ZM53.382,58.121c0,13.276-19.249,10.782-25.827,17.074C22.866,69.527,1.968,71.564,1.968,58.121V2.051H53.382Z" fill="hsla(140, 3%, 55%, 1)"/>
        <path id="Path_5788" data-name="Path 5788" d="M94.834,198.205a7.467,7.467,0,0,0-1.878-.3,8.02,8.02,0,0,0-.838-1.935,8.3,8.3,0,0,0-.831,1.941,6.866,6.866,0,0,0-1.872.277,4.544,4.544,0,0,0,1.364,1.366,12.816,12.816,0,0,0-.422,1.918,7.318,7.318,0,0,0,1.751-.964,8.62,8.62,0,0,0,1.672.964,7.444,7.444,0,0,0-.337-1.964,7.961,7.961,0,0,0,1.39-1.307" transform="translate(-78.994 -173.133)" fill="hsla(140, 3%, 55%, 1)"/>
        <path id="Path_5789" data-name="Path 5789" d="M60.712,80.982c-.645,0-.993-.925-1.273-1.559-.134-.3-3.452-8.654-3.452-8.654l-1.275.915L51.988,79.86c-.09.291-.589,1.15-1.033,1.15h-.54v.547H53.97v-.575h-.516c-.347,0-.87-.242-.738-.721.025-.091.441-1.309.912-2.682h3.035c.595,1.444,1.125,2.731,1.137,2.765.113.3-.3.637-.469.637h-.665v.575h4.426v-.575Zm-6.839-4.116c.57-1.658,1.135-3.3,1.135-3.3l1.36,3.3Z" transform="translate(-44.539 -62.521)" fill="hsla(140, 3%, 55%, 1)"/>
        <path id="Path_5790" data-name="Path 5790" d="M141.564,76.553c.125.353,3.714,9.063,3.714,9.063h.707s3.575-8.845,3.721-9.178.385-.842.79-.842h.348v-.547h-3.388V75.6h.618c.608,0,.842.385.7.831-.053.17-2.495,6.517-2.495,6.517s-2.614-6.418-2.7-6.636-.125-.712.587-.712h.613v-.547h-4.83V75.6h.43a1.285,1.285,0,0,1,1.185.956" transform="translate(-123.639 -66.302)" fill="hsla(140, 3%, 55%, 1)"/>
        <path id="Path_5791" data-name="Path 5791" d="M256.568,84.764h-.457a1,1,0,0,1-.908-1.109V80.093l2.335.007a1.355,1.355,0,0,1,1.185,1.358h.506V78.382h-.506a1.068,1.068,0,0,1-1.157,1.095H255.2V76.629a1,1,0,0,1,1.088-1.033h1.6a1.72,1.72,0,0,1,1.6,1.7h.575V75.049H251.9V75.6h.5a.863.863,0,0,1,.894.79c0,.423-.014,7.026-.014,7.276,0,.374-.139,1.1-.776,1.1h-.6v.575h4.67Z" transform="translate(-222.539 -66.302)" fill="hsla(140, 3%, 55%, 1)"/>
        <path id="Path_5792" data-name="Path 5792" d="M342.628,83.575a12.706,12.706,0,0,0,3.475-.762l.6-2.148-.624-.263s-.79,2.467-3.076,2.467c-2.619,0-4.144-2.675-4.144-4.92,0-2.813,1.968-4.5,3.839-4.5a3.068,3.068,0,0,1,2.993,2.328l.638-.139-.319-2.113a9.469,9.469,0,0,0-3.378-.821c-4.355,0-5.893,3.281-5.893,5.207a5.5,5.5,0,0,0,5.893,5.668" transform="translate(-297.488 -64.227)" fill="hsla(140, 3%, 55%, 1)"/>
        <path id="Path_5793" data-name="Path 5793" d="M91.784,174.811c-1.071.239-3.17,1.746-3.1,3.5-.956,0-1.746,1.912-1.985,2.006s-2.152.561-2.152,1.268c0,.395.3.89.447.89s.374-.34.374-.34a1.771,1.771,0,0,0,.026,1.084,2.336,2.336,0,0,0,1.3.631c-.066-.191.1-.648.883-.648,1.6,0,1.684.714,1.684,1.171,0,.374-1.109.665-1.885.665a1.727,1.727,0,0,1-1.074-.5c-.125.527-.388.478-.388.721,0,.274.442.357.442.357s-.109.752.008.9a5.174,5.174,0,0,0,1.13.769c-.173-.457.011-.762.208-.762.471,0,.547.437,1.067.437a.737.737,0,0,1,.45-1.053c.326,0,.7.762,1.781.762a2.487,2.487,0,0,0,1.185-.638c-.139,2.19-3.995,1.576-5.425,4.532a4.2,4.2,0,0,1-2.02.34c-6.371,0-4.9-5.342-7.421-5.342a1.932,1.932,0,0,0-1.881,1.424.621.621,0,0,0,.675.634c-.2.177-.675.353-.675,1.008a1.208,1.208,0,0,0,1.123,1.168c-.381.1-.478.568-.478.811,0,.762.859.984,1.649.984,1.649,0,1.962,1.62,3.963,3.1a8.134,8.134,0,0,0,3.16,1.109,4.727,4.727,0,0,0,2.467.166c-.638-.083-.617-.416-.617-.416a5.086,5.086,0,0,0,1.746.138c-.568.959-1.5,2.342-2.973,2.342-.541,0-1.76.527-2.217.527-.637,0-1.386-.693-2.231-.693s-1.344,1.053-1.344,1.566.679.762.79.748c-.126.076-1.192.056-1.192,1.164,0,1.774,1.538,1.24,1.58,1.178a.822.822,0,0,0,.8,1.15c1.331,0,1.968-1.954,2.841-2.162a23.2,23.2,0,0,1,3.8-.762c.554,0,1.663.25,1.76.222a1.949,1.949,0,0,1-.263-.963,3.211,3.211,0,0,1,2.349.665,7.809,7.809,0,0,1-1.528-.1,3.4,3.4,0,0,0,.27.915c-2.782.138-5.429,1.3-5.429,3.589,0,2.134,3.09,3.243,3.076,3.381a14.037,14.037,0,0,1-2.7.735c-2.273,0-1.732-3.018-3.946-3.018a1.254,1.254,0,0,0-1.3,1.112.8.8,0,0,0,.405.572,1.5,1.5,0,0,0-.918,1.216,1.158,1.158,0,0,0,.922,1.157.514.514,0,0,0-.243.485c0,.125.187.982.982.982.7,0,1.561-.234,1.845-.234.686,0,.52,1.133,1.382,1.133s.286-1.06,2.453-1.06a2.344,2.344,0,0,1,2.151.915c.513-.01,1.012-.329,1.4-.329a.369.369,0,0,1-.049.475,1.475,1.475,0,0,0,1.136-.239.327.327,0,0,1,0,.395,2.494,2.494,0,0,0,1.608-1.926c0-.866-.374-2.231-.374-3.437a2.908,2.908,0,0,1,.613-2.068c.353,0-.052,1.5-.052,2.006a5.142,5.142,0,0,0,2.131,4.3.682.682,0,0,1,0-.361c.551,0,.96.513,2.1.409-.374-.222-.229-.506-.229-.506a3.033,3.033,0,0,0,2.009-.492c-.139-.145-.229-.526-.159-.582.72,0,1.354.253,1.354,2.789a3.815,3.815,0,0,1-2.432,3.825,5.116,5.116,0,0,0-2.588-1.154c-.665,0-2.134.388-2.134,1.1,0,1.012.776,1.032.908,1.012a2.1,2.1,0,0,0-.307.994,1.187,1.187,0,0,0,1.1,1.107,1.86,1.86,0,0,0,1.013-.462,1.14,1.14,0,0,0-.192.738.942.942,0,0,0,1.019.842c1.128,0,2.659-2.207,3.809-2.9a6.8,6.8,0,0,1,2.2-1.012,1.023,1.023,0,0,0,.79-.915c0-.457-.294-.672-.294-1.483a10.244,10.244,0,0,1,.748-3.035c.707-.644,1.538-.78,1.445-1.466.277-.038.34-.4.34-.483a.922.922,0,0,1-.8-.774c0-.182.6-.53.5-1.071-.556.26-1.362-.094-1.362-1.431-1.071-.378-1.85-.139-2.183-.728a6.492,6.492,0,0,0,0-1.8c1.091,0,2.973,1.881,5.2,1.881,1.739,0,2.6-2.193,2.6-3.731,0-3.659-7.234-7.671-7.234-10.879a3,3,0,0,1,1.76-2.619,4.681,4.681,0,0,0,2.01.624c1.381,0,2.4-.936,2.913-.866-.135-.27-.759-.333-.759-.333,2.39-.686,2.795-3.065,2.994-4.622a3.844,3.844,0,0,1-2.578,2.044c-.634,0-.717-.249-.717-.249s.468-.582.852-.478c-.686-.561-3.472-.416-3.773.624-.291-.094.125-.779.062-.915-.354.509-1.777.707-1.476,2.2a5.274,5.274,0,0,0-3.035,4.542c0,4.48,6.735,8.076,6.735,11.069,0,.381,0,1.282-.984,1.282s-3.3-1.926-5.114-2.328a3.951,3.951,0,0,1-2.411-3.853,24.363,24.363,0,0,1,.471-2.675,3.5,3.5,0,0,0-.416-1.691,1.061,1.061,0,0,1,.908,1.074,8.826,8.826,0,0,0,.415-2.931,4.124,4.124,0,0,0-1.341-2.775c.093-.229.437-.25.572-.25.437,0,.967.946.967,1.154a3.868,3.868,0,0,0,.384-1.975,2.832,2.832,0,0,0-1.2-2.495c.059-.416.842-.866,1.58-.166A5.475,5.475,0,0,0,99.3,179.4c.1-.391,1.538-.014,1.636.277-.652-3.714-4.4-4.192-6.32-3.894-.381-.62.461-1.265.461-1.265a3.94,3.94,0,0,0-3.295,1.265c-.208-.069,0-.974,0-.974m-1.476,5.727c-.707,0-.894-.374-.894-.5a1.735,1.735,0,0,1,.408-.269c.046.256.171.574.514.574a.481.481,0,0,0,.471-.644c-.359.355-.433.066-.383-.264.386-.21.745-.4.785-.429.09-.062.153-.083.153.055,0,.263-.076,1.476-1.053,1.476m4.4-3.669c.312,0,1.029.447,1.029.863a2.216,2.216,0,0,1-1.254,1.49c-.218.073.173-.776.118-.9s-.3.291-.5.291.256-.617.256-.832c0-.165-.658.388-.942.388a.178.178,0,0,1-.187-.173,1.858,1.858,0,0,1,1.479-1.126" transform="translate(-66.652 -154.136)" fill="hsla(140, 3%, 55%, 1)"/>
      </g>
    </g>
    <path id="Path_5794" data-name="Path 5794" d="M15.33-3.93a2.9,2.9,0,0,1,.33,1.2c0,.93-.6,1.23-2.58,1.29V0h8.76V-1.44c-.87-.12-1.44-.33-1.77-1.11L12-21.27H7.83l.96,2.13L1.95-2.55c-.33.81-.96.99-1.77,1.11V0H6.9V-1.44C4.92-1.5,4.29-1.83,4.29-2.76a3.634,3.634,0,0,1,.33-1.2L5.73-6.78h8.4ZM9.87-17.07,13.5-8.34H6.36ZM29.28.3c3.72,0,5.94-2.04,5.94-5.01,0-3.15-2.13-4.2-5.22-5.04-2.46-.66-3.45-1.44-3.45-2.91a2.187,2.187,0,0,1,2.46-2.16c2.04,0,3.24,1.14,3.69,3.33h1.53v-3.6a9.934,9.934,0,0,0-5.1-1.29c-3.39,0-5.55,1.92-5.55,4.86,0,2.85,1.77,4.11,4.8,4.98,2.7.75,3.9,1.35,3.9,3.06,0,1.44-1.14,2.25-2.91,2.25-2.4,0-3.81-1.44-4.38-3.9H23.43l.18,3.87A9.624,9.624,0,0,0,29.28.3ZM42.63-19.62H41.55a13.566,13.566,0,0,1-4.68,4.2v1.14h2.16V-3.6c0,2.76,1.53,3.9,3.93,3.9a6.442,6.442,0,0,0,4.86-2.01l-.39-.93a5.95,5.95,0,0,1-2.58.63c-1.53,0-2.22-.57-2.22-2.16V-14.28h4.41v-1.8H42.63ZM57.09-1.44c-2.73,0-4.26-3.15-4.26-7.05,0-3.66,1.23-6.18,3.72-6.18,2.7,0,4.26,3.18,4.26,7.08C60.81-3.93,59.55-1.44,57.09-1.44ZM56.67.3c4.38,0,7.89-3.39,7.89-8.64,0-4.62-3-8.04-7.62-8.04-4.38,0-7.86,3.39-7.86,8.64C49.08-3.12,52.05.3,56.67.3ZM79.08-3.06c0,1.38-.78,1.53-2.13,1.71V0h7.92V-1.35c-1.35-.18-2.16-.33-2.16-1.71v-8.4c0-3.45-1.62-4.92-4.32-4.92-2.52,0-4.38,1.56-5.76,3v-3.06h-.84l-4.8,1.56v.75L69-12.84v9.78c0,1.38-.84,1.53-2.16,1.71V0h7.89V-1.35c-1.35-.18-2.1-.33-2.1-1.71v-9.42a7.224,7.224,0,0,1,3.93-1.29c1.77,0,2.52.75,2.52,2.61Zm25.05-2.07-5.37-12a2.9,2.9,0,0,1-.33-1.2c0-.9.63-1.23,2.61-1.29v-1.44H92.22v1.44a1.89,1.89,0,0,1,1.77,1.11L102.66.24h1.14l7.89-18.75c.36-.81.93-.99,1.8-1.11v-1.44h-6.87v1.44c1.98.06,2.58.42,2.58,1.32a3.346,3.346,0,0,1-.3,1.2Zm16.29-11.25h-.84l-4.8,1.5v.72l2.01,1.26v9.84c0,1.38-.84,1.53-2.16,1.71V0h7.95V-1.35c-1.35-.18-2.16-.33-2.16-1.71Zm-1.92-1.8a2.235,2.235,0,0,0,2.28-2.25,2.235,2.235,0,0,0-2.28-2.25,2.242,2.242,0,0,0-2.31,2.25A2.242,2.242,0,0,0,118.5-18.18Zm11.7-4.65h-.81l-4.83,1.41v.75l2.04,1.29V-3.06c0,1.38-.84,1.53-2.19,1.71V0h7.95V-1.35c-1.32-.18-2.16-.33-2.16-1.71Zm9.78,0h-.81l-4.83,1.41v.75l2.04,1.29V-3.06c0,1.38-.84,1.53-2.19,1.71V0h7.95V-1.35c-1.32-.18-2.16-.33-2.16-1.71ZM150.21-2.19c-1.44,0-2.25-.93-2.25-2.58a2.429,2.429,0,0,1,1.74-2.37l3.51-1.35v5.25A4.753,4.753,0,0,1,150.21-2.19Zm6.63-8.7c0-3.84-1.98-5.49-5.67-5.49-3.45,0-6,1.38-6,3.99a1.967,1.967,0,0,0,.84,1.77l2.64-.39a7.007,7.007,0,0,1-.21-1.71c0-1.38.72-2.1,2.19-2.1,1.98,0,2.58,1.32,2.58,3.27v1.59l-4.77,1.71c-2.01.69-4.14,1.65-4.14,4.41A3.809,3.809,0,0,0,148.35.27a6.547,6.547,0,0,0,4.95-2.7C153.66-.81,154.53.3,156.12.3a4.769,4.769,0,0,0,3.42-1.56l-.18-.96a6.69,6.69,0,0,1-1.38.18c-.84,0-1.23-.69-1.23-1.89C156.75-4.86,156.84-10.17,156.84-10.89ZM11.4,28V26.59c-2.43-.12-3.75-.39-3.75-2.13V18.4h3.69c1.32,0,1.86.78,2.19,2.61h1.29V14.2H13.53c-.33,1.8-.87,2.58-2.19,2.58H7.65V8.53h4.41c2.4,0,3.21,1.2,4.26,3.78h1.26V6.94H.99V8.38c2.01.06,2.85.39,2.85,2.13V24.4c0,1.77-.84,2.1-2.85,2.16V28Zm15.48-1.44c-2.73,0-4.26-3.15-4.26-7.05,0-3.66,1.23-6.18,3.72-6.18,2.7,0,4.26,3.18,4.26,7.08C30.6,24.07,29.34,26.56,26.88,26.56Zm-.42,1.74c4.38,0,7.89-3.39,7.89-8.64,0-4.62-3-8.04-7.62-8.04-4.38,0-7.86,3.39-7.86,8.64C18.87,24.88,21.84,28.3,26.46,28.3Zm18.45-1.74c-2.73,0-4.26-3.15-4.26-7.05,0-3.66,1.23-6.18,3.72-6.18,2.7,0,4.26,3.18,4.26,7.08C48.63,24.07,47.37,26.56,44.91,26.56Zm-.42,1.74c4.38,0,7.89-3.39,7.89-8.64,0-4.62-3-8.04-7.62-8.04-4.38,0-7.86,3.39-7.86,8.64C36.9,24.88,39.87,28.3,44.49,28.3ZM59.79,8.38H58.71a13.566,13.566,0,0,1-4.68,4.2v1.14h2.16V24.4c0,2.76,1.53,3.9,3.93,3.9a6.442,6.442,0,0,0,4.86-2.01l-.39-.93a5.95,5.95,0,0,1-2.58.63c-1.53,0-2.22-.57-2.22-2.16V13.72H64.2v-1.8H59.79Zm7.8.24V26.29A11.079,11.079,0,0,0,74.4,28.3c4.5,0,8.1-3.48,8.1-9.12,0-4.38-2.25-7.56-6.27-7.56a5.93,5.93,0,0,0-5.01,2.7V5.17h-.81L65.58,6.58v.75Zm6.99,18.09c-2.13,0-3.36-1.11-3.36-3.81V15.22a4.744,4.744,0,0,1,3.24-1.14c3,0,4.38,2.97,4.38,6.45C78.84,24.25,77.16,26.71,74.58,26.71Zm16.17-.9c-1.44,0-2.25-.93-2.25-2.58a2.429,2.429,0,0,1,1.74-2.37l3.51-1.35v5.25A4.753,4.753,0,0,1,90.75,25.81Zm6.63-8.7c0-3.84-1.98-5.49-5.67-5.49-3.45,0-6,1.38-6,3.99a1.967,1.967,0,0,0,.84,1.77l2.64-.39a7.007,7.007,0,0,1-.21-1.71c0-1.38.72-2.1,2.19-2.1,1.98,0,2.58,1.32,2.58,3.27v1.59l-4.77,1.71c-2.01.69-4.14,1.65-4.14,4.41a3.809,3.809,0,0,0,4.05,4.11,6.547,6.547,0,0,0,4.95-2.7c.36,1.62,1.23,2.73,2.82,2.73a4.769,4.769,0,0,0,3.42-1.56l-.18-.96a6.69,6.69,0,0,1-1.38.18c-.84,0-1.23-.69-1.23-1.89C97.29,23.14,97.38,17.83,97.38,17.11Zm9.48-11.94h-.81l-4.83,1.41v.75l2.04,1.29V24.94c0,1.38-.84,1.53-2.19,1.71V28h7.95V26.65c-1.32-.18-2.16-.33-2.16-1.71Zm9.78,0h-.81L111,6.58v.75l2.04,1.29V24.94c0,1.38-.84,1.53-2.19,1.71V28h7.95V26.65c-1.32-.18-2.16-.33-2.16-1.71Zm21.6,21.36c-4.41,0-6.66-4.05-6.66-9.48,0-4.65,1.83-8.67,6.27-8.67,2.7,0,4.41,1.59,5.22,4.92h1.62V8.62A10.388,10.388,0,0,0,138,6.64c-5.91,0-10.59,4.29-10.59,11.28,0,6.03,3.96,10.38,10.23,10.38a13.771,13.771,0,0,0,7.14-1.74l.63-5.31h-1.65C142.65,24.76,141.09,26.53,138.24,26.53ZM153.36,5.17h-.81l-4.83,1.41v.75l2.04,1.29V24.94c0,1.38-.84,1.53-2.19,1.71V28h7.95V26.65c-1.32-.18-2.16-.33-2.16-1.71ZM169.11,28.3h.66l5.25-1.02V25.93l-.75-.06c-1.23-.12-1.5-.42-1.5-1.44V11.62h-.66l-5.04.9v1.23l.45.09c1.29.21,1.59.6,1.59,1.62v9.03a6.844,6.844,0,0,1-3.75,1.26c-1.71,0-2.49-.9-2.49-2.88V11.62h-.63l-5.1.9v1.23l.48.09c1.29.21,1.59.6,1.59,1.62v7.86c0,3.51,1.68,4.98,4.32,4.98,2.52,0,4.23-1.53,5.58-2.94Zm9.12-19.68V26.29a11.079,11.079,0,0,0,6.81,2.01c4.5,0,8.1-3.48,8.1-9.12,0-4.38-2.25-7.56-6.27-7.56a5.93,5.93,0,0,0-5.01,2.7V5.17h-.81l-4.83,1.41v.75Zm6.99,18.09c-2.13,0-3.36-1.11-3.36-3.81V15.22a4.744,4.744,0,0,1,3.24-1.14c3,0,4.38,2.97,4.38,6.45C189.48,24.25,187.8,26.71,185.22,26.71Z" transform="translate(94 58)" fill="hsla(140, 3%, 55%, 1)"/>
  </g>
</svg>
