<svg xmlns="http://www.w3.org/2000/svg" xmlns:xlink="http://www.w3.org/1999/xlink" width="320" height="120" viewBox="0 0 320 120">
  <defs>
    <clipPath id="clip-l_4">
      <rect width="320" height="120"/>
    </clipPath>
  </defs>
  <g id="l_4" data-name="l – 4" clip-path="url(#clip-l_4)">
    <g id="logo-laravel" transform="translate(-1.744 -0.855)">
      <path id="Path_5604" data-name="Path 5604" d="M70.705,16.476a1.152,1.152,0,0,1,.04.3V32.406a1.14,1.14,0,0,1-.57.989L57.055,40.946V55.922a1.14,1.14,0,0,1-.57.989L29.094,72.677a1.224,1.224,0,0,1-.2.083c-.026.009-.05.024-.077.031a1.147,1.147,0,0,1-.584,0c-.031-.009-.06-.026-.09-.037a1.186,1.186,0,0,1-.188-.077L.57,56.911A1.14,1.14,0,0,1,0,55.922V9.025a1.165,1.165,0,0,1,.04-.3c.009-.033.028-.063.04-.1a1.123,1.123,0,0,1,.073-.177,1.066,1.066,0,0,1,.078-.1,1.161,1.161,0,0,1,.1-.133,1.113,1.113,0,0,1,.113-.085.929.929,0,0,1,.125-.1h0L14.263.153a1.14,1.14,0,0,1,1.14,0L29.1,8.036h0a1.4,1.4,0,0,1,.125.1,1.348,1.348,0,0,1,.111.085,1.334,1.334,0,0,1,.1.134,1.052,1.052,0,0,1,.077.1,1.19,1.19,0,0,1,.074.177c.011.033.031.063.04.1a1.153,1.153,0,0,1,.04.3V38.316l11.41-6.57V16.772a1.151,1.151,0,0,1,.04-.3c.01-.034.028-.064.04-.1a1.282,1.282,0,0,1,.074-.177c.021-.037.053-.067.077-.1a1.173,1.173,0,0,1,.1-.133,1.1,1.1,0,0,1,.111-.085,1.15,1.15,0,0,1,.125-.1h0L55.338,7.9a1.14,1.14,0,0,1,1.14,0L70.17,15.785a1.258,1.258,0,0,1,.128.1c.036.028.077.054.11.085a1.331,1.331,0,0,1,.1.134.855.855,0,0,1,.077.1,1.129,1.129,0,0,1,.074.177.815.815,0,0,1,.04.1ZM68.463,31.747v-13l-4.791,2.758-6.619,3.811v13l11.412-6.57ZM54.771,55.262V42.254L48.26,45.973,29.666,56.585V69.715l25.1-14.453ZM2.28,11V55.262l25.1,14.451V56.586L14.276,49.164h0l-.231-.177h0a1.086,1.086,0,0,1-.094-.12,1.218,1.218,0,0,1-.085-.111h0a.909.909,0,0,1-.06-.142.843.843,0,0,1-.054-.128h0a1.091,1.091,0,0,1-.023-.167.989.989,0,0,1-.017-.128V17.567L7.074,13.755,2.28,11Zm12.552-8.54L3.419,9.025l11.4,6.567L26.224,9.023,14.832,2.458ZM20.765,43.44l6.618-3.81V11l-4.789,2.758-6.619,3.811V46.205l4.793-2.76ZM55.912,10.207,44.505,16.774l11.407,6.567,11.405-6.568Zm-1.14,15.1-6.615-3.8-4.791-2.758v13l6.618,3.81,4.793,2.76v-13Zm-26.248,29.3,16.731-9.546,8.363-4.773L42.22,33.73,29.1,41.281,17.129,48.167Z" transform="translate(38.49 24.441)" fill="hsla(140, 3%, 55%, 1)" fill-rule="evenodd"/>
      <path id="Path_5605" data-name="Path 5605" d="M6.659.917V33.752h11.88v5.665H.333V.917H6.659ZM40.868,17.252V13.787h6V39.418H40.869V35.952a8.264,8.264,0,0,1-3.438,3.025,10.03,10.03,0,0,1-4.482,1.1,13.014,13.014,0,0,1-5.336-1.071,12.478,12.478,0,0,1-4.153-2.944,13.678,13.678,0,0,1-2.693-4.289,14.282,14.282,0,0,1,0-10.315,13.621,13.621,0,0,1,2.694-4.317A12.489,12.489,0,0,1,27.614,14.2a13.014,13.014,0,0,1,5.336-1.071,10.03,10.03,0,0,1,4.482,1.1,8.285,8.285,0,0,1,3.438,3.025Zm-.546,12.485a9.185,9.185,0,0,0,0-6.269,7.95,7.95,0,0,0-1.539-2.586,7.456,7.456,0,0,0-2.394-1.761,7.219,7.219,0,0,0-3.106-.66,7.044,7.044,0,0,0-3.082.66,7.442,7.442,0,0,0-3.875,4.346,9.644,9.644,0,0,0,0,6.269,7.456,7.456,0,0,0,3.88,4.347,7.011,7.011,0,0,0,3.079.66,7.2,7.2,0,0,0,3.107-.66,7.44,7.44,0,0,0,2.394-1.761,7.943,7.943,0,0,0,1.539-2.585ZM51.6,39.417V13.787H67.874v5.9H57.587V39.42H51.593Zm38-22.165V13.787h6V39.418h-6V35.952a8.264,8.264,0,0,1-3.438,3.025,10.026,10.026,0,0,1-4.482,1.1,13.012,13.012,0,0,1-5.334-1.071,12.478,12.478,0,0,1-4.153-2.944A13.678,13.678,0,0,1,69.5,31.773a14.292,14.292,0,0,1,0-10.315,13.621,13.621,0,0,1,2.693-4.317A12.49,12.49,0,0,1,76.344,14.2a13.012,13.012,0,0,1,5.334-1.071,10.03,10.03,0,0,1,4.482,1.1A8.264,8.264,0,0,1,89.6,17.252Zm-.55,12.485a9.207,9.207,0,0,0,0-6.269,7.95,7.95,0,0,0-1.539-2.586,7.456,7.456,0,0,0-2.394-1.761,7.226,7.226,0,0,0-3.107-.66,7.043,7.043,0,0,0-3.08.66,7.45,7.45,0,0,0-3.877,4.346,9.656,9.656,0,0,0,0,6.269,7.447,7.447,0,0,0,3.881,4.347,7.023,7.023,0,0,0,3.08.66,7.2,7.2,0,0,0,3.107-.66,7.44,7.44,0,0,0,2.394-1.761,7.943,7.943,0,0,0,1.539-2.585Zm30.58-15.95H125.7l-9.838,25.632h-7.537L98.486,13.787h6.072l7.536,19.628Zm19.145-.66c8.162,0,13.729,7.235,12.68,15.7H131.572a7.2,7.2,0,0,0,7.534,6.486c4.559,0,7.615-4.011,7.617-4.014l4.051,3.134c-3.622,3.865-6.587,5.642-11.23,5.642-8.3,0-13.92-5.249-13.92-13.475a13.267,13.267,0,0,1,13.149-13.475Zm-7.189,11.247h14.367a7.084,7.084,0,0,0-7.226-6.486,6.981,6.981,0,0,0-7.137,6.486ZM155.36,39.417V.917h6v38.5Z" transform="translate(123.643 40.359)" fill="hsla(140, 3%, 55%, 1)" fill-rule="evenodd"/>
    </g>
  </g>
</svg>
