<svg xmlns="http://www.w3.org/2000/svg" xmlns:xlink="http://www.w3.org/1999/xlink" width="320" height="120" viewBox="0 0 320 120">
  <defs>
    <clipPath id="clip-l_8">
      <rect width="320" height="120"/>
    </clipPath>
  </defs>
  <g id="l_8" data-name="l – 8" clip-path="url(#clip-l_8)">
    <g id="logo-tailwind" transform="translate(40.485 41.18)">
      <path id="Path_5608" data-name="Path 5608" d="M31.552,0Q18.931,0,15.776,12.548,20.511,6.274,26.822,7.84c2.4.6,4.117,2.327,6.015,4.244,3.094,3.122,6.675,6.734,14.5,6.734q12.621,0,15.776-12.546-4.732,6.274-11.043,4.7c-2.4-.6-4.118-2.327-6.017-4.244C42.957,3.611,39.377,0,31.552,0ZM15.776,18.82Q3.155,18.82,0,31.367q4.734-6.274,11.043-4.706c2.4.6,4.118,2.327,6.017,4.244,3.094,3.122,6.675,6.734,14.5,6.734q12.621,0,15.776-12.546Q42.6,31.367,36.287,29.8c-2.4-.6-4.117-2.329-6.015-4.244-3.094-3.122-6.675-6.735-14.5-6.735Z" fill="hsla(140, 3%, 55%, 1)"/>
      <path id="Path_5609" data-name="Path 5609" d="M79.3,15.647H73.792v10.6c0,2.825,1.864,2.782,5.507,2.6v4.28c-7.373.884-10.3-1.147-10.3-6.884v-10.6H64.91V11.059H69V5.13l4.8-1.416v7.342H79.3v4.589Zm20.992-4.589h4.8V33.129h-4.8V29.951A9.147,9.147,0,0,1,92.519,33.7,11.314,11.314,0,0,1,81.461,22.094,11.282,11.282,0,0,1,92.519,10.485a9.223,9.223,0,0,1,7.773,3.709V11.056Zm-7.017,18.1a6.842,6.842,0,0,0,7.017-7.064,7.017,7.017,0,1,0-14.034,0,6.842,6.842,0,0,0,7.018,7.064ZM113.081,7.745A3.055,3.055,0,1,1,116.15,4.7a3.089,3.089,0,0,1-3.068,3.046Zm-2.4,25.384V11.059h4.8V33.13Zm10.348,0V.9h4.8V33.128h-4.8ZM156.96,11.059h5.067L155.055,33.13h-4.707l-4.621-14.877L141.065,33.13h-4.707l-6.974-22.071h5.067l4.312,15.227,4.664-15.23h4.564l4.621,15.23,4.354-15.23Zm11.01-3.311A3.056,3.056,0,1,1,171.039,4.7a3.09,3.09,0,0,1-3.069,3.046Zm-2.39,25.384V11.061h4.8V33.132Zm22.026-22.651c4.972,0,8.525,3.355,8.525,9.094V33.128h-4.8V20.061c0-3.355-1.954-5.12-4.972-5.12-3.155,0-5.641,1.854-5.641,6.357V33.13h-4.8V11.059h4.8v2.825c1.466-2.295,3.864-3.4,6.884-3.4Zm31.265-8.255h4.8v30.9h-4.8V29.95A9.141,9.141,0,0,1,211.1,33.7a11.314,11.314,0,0,1-11.056-11.608A11.282,11.282,0,0,1,211.1,10.484a9.219,9.219,0,0,1,7.771,3.709V2.227Zm-7.017,26.931a6.842,6.842,0,0,0,7.017-7.064,7.017,7.017,0,1,0-14.034,0,6.842,6.842,0,0,0,7.018,7.064Z" transform="translate(15.363 0.213)" fill="hsla(140, 3%, 55%, 1)"/>
    </g>
  </g>
</svg>
